<?xml version="1.0" standalone="no"?>
<!DOCTYPE svg PUBLIC "-//W3C//DTD SVG 1.1//EN" "http://www.w3.org/Graphics/SVG/1.1/DTD/svg11.dtd" >
<svg xmlns="http://www.w3.org/2000/svg" xmlns:xlink="http://www.w3.org/1999/xlink" version="1.1" viewBox="-10 0 638 1024">
   <path fill="currentColor"
d="M165 794c-25 -13 -48 -30 -65 -53c-45 -49 -65 -120 -65 -185c0 -27 4 -53 10 -77c26 -97 128 -149 219 -149c13 0 26 1 38 3c35 7 51 52 58 84c4 15 6 29 6 43c0 15 -2 31 -9 49c-45 101 -111 120 -192 145c16 46 66 65 110 68c9 1 17 1 26 1c83 0 164 -30 239 -64
c6 -4 13 -6 20 -6c20 0 40 15 40 36c0 2 -1 5 -1 7c-15 27 -47 39 -72 55c-47 26 -97 51 -150 59c-30 5 -61 8 -92 8c-39 0 -78 -5 -114 -21c0 -2 -6 0 -6 -3zM287 514c10 -19 14 -34 14 -51c0 -12 -2 -24 -6 -40c-7 -29 -13 -41 -30 -41c-9 0 -20 3 -36 8
c-55 18 -88 63 -109 150c-3 11 -5 20 -5 26c0 10 5 14 17 14c11 0 29 -4 55 -9c48 -9 88 -32 100 -57z" />
</svg>
