<?xml version="1.0" standalone="no"?>
<!DOCTYPE svg PUBLIC "-//W3C//DTD SVG 1.1//EN" "http://www.w3.org/Graphics/SVG/1.1/DTD/svg11.dtd" >
<svg xmlns="http://www.w3.org/2000/svg" xmlns:xlink="http://www.w3.org/1999/xlink" version="1.1" viewBox="-10 0 503 1024">
   <path fill="currentColor"
d="M81 1161c-32 -36 -49 -131 -50 -283v-36c0 -97 4 -115 26 -145c19 -26 38 -36 64 -36c50 0 57 -21 67 -176c17 -275 104 -466 213 -466c46 0 71 18 71 52c0 16 -6 21 -19 16c-10 -4 -26 -10 -36 -14c-2 -1 -4 -1 -6 -1c-51 0 -127 234 -146 457l-9 104l59 7
c53 6 76 14 76 31c0 7 -4 16 -12 27c-14 19 -24 26 -54 26c-6 0 -13 0 -21 -1l-55 -3l-14 76c-7 42 -17 122 -21 178s-15 123 -23 151c-13 43 -21 51 -53 54h-9c-20 0 -37 -6 -48 -18zM160 858c2 -21 3 -39 3 -55c0 -33 -4 -55 -11 -58c-1 -1 -4 -1 -6 -1
c-13 0 -36 11 -40 30c-8 51 -13 100 -13 148c0 39 3 78 10 117l21 59l13 -68s18 -115 23 -172z" />
</svg>
