<?xml version="1.0" standalone="no"?>
<!DOCTYPE svg PUBLIC "-//W3C//DTD SVG 1.1//EN" "http://www.w3.org/Graphics/SVG/1.1/DTD/svg11.dtd" >
<svg xmlns="http://www.w3.org/2000/svg" xmlns:xlink="http://www.w3.org/1999/xlink" version="1.1" viewBox="-10 0 586 1024">
   <path fill="currentColor"
d="M26 1250v-7c0 -19 -1 -38 -1 -58c0 -42 5 -84 35 -117c31 -36 60 -77 100 -104c22 1 30 12 30 27c0 26 -23 65 -31 85c-16 48 -27 100 -27 151c0 40 7 80 23 117c9 17 19 24 29 24c27 0 53 -51 63 -78c45 -142 77 -265 116 -395c19 -77 48 -151 59 -230
c-7 -7 -15 -9 -25 -9c-27 0 -64 19 -94 19c-3 0 -7 0 -10 -1c-6 1 -12 1 -18 1c-50 0 -102 -19 -134 -59c-1 -6 -2 -12 -2 -18c0 -47 36 -91 65 -126c59 -62 140 -111 228 -111c7 0 13 0 20 1c57 18 101 72 101 133c0 4 -1 9 -1 13c-57 328 -238 842 -287 916
c-21 35 -52 79 -89 84c-90 -19 -148 -176 -150 -258zM393 555c30 -16 57 -39 73 -69c3 -6 7 -14 7 -21c0 -4 -2 -9 -5 -13c-10 -8 -24 -8 -36 -9s-24 -2 -36 -2c-10 0 -20 1 -29 2c-28 6 -52 24 -74 42c-26 22 -50 47 -66 77c-4 10 -9 22 -2 31c7 6 15 7 24 7
c5 0 11 -1 16 -1c45 -6 88 -24 128 -44z" />
</svg>
