<?xml version="1.0" standalone="no"?>
<!DOCTYPE svg PUBLIC "-//W3C//DTD SVG 1.1//EN" "http://www.w3.org/Graphics/SVG/1.1/DTD/svg11.dtd" >
<svg xmlns="http://www.w3.org/2000/svg" xmlns:xlink="http://www.w3.org/1999/xlink" version="1.1" viewBox="-10 0 484 1024">
   <path fill="currentColor"
d="M63 810c-12 -4 -26 -15 -30 -24c-12 -26 0 -212 31 -477c15 -132 29 -262 33 -289c6 -46 42 -46 51 -58c0 -1 1 -1 1 -1c3 0 5 16 5 35c0 8 0 17 -1 24c-3 27 -5 125 -17 216s-22 228 -23 312c-1 78 -6 119 -6 140c0 15 2 20 9 22h3c26 0 100 -60 144 -118
c59 -77 104 -116 134 -116c27 0 41 31 41 92c0 19 -1 41 -4 66s-4 48 -4 65c0 19 1 32 5 38c5 9 8 18 8 27c0 23 -19 42 -48 42h-38l7 -101c1 -26 2 -49 2 -67c0 -21 -1 -34 -3 -34c-8 0 -14 6 -88 97c-69 84 -113 118 -163 118c-15 0 -32 -3 -49 -9z" />
</svg>
