<?xml version="1.0" standalone="no"?>
<!DOCTYPE svg PUBLIC "-//W3C//DTD SVG 1.1//EN" "http://www.w3.org/Graphics/SVG/1.1/DTD/svg11.dtd" >
<svg xmlns="http://www.w3.org/2000/svg" xmlns:xlink="http://www.w3.org/1999/xlink" version="1.1" viewBox="-10 0 270 1024">
   <path fill="currentColor"
d="M112 786c-47 -36 -58 -53 -76 -121c-12 -48 -13 -77 -4 -133c26 -164 43 -211 77 -212c12 0 19 21 19 46c0 18 -3 39 -11 54c-8 16 -12 53 -12 92s4 78 12 98c8 18 33 45 57 59c33 20 51 46 51 74c0 14 -5 30 -15 44c-12 17 -24 26 -40 26s-35 -9 -58 -26v-1zM119 154
c-2 -5 -2 -11 -2 -17c0 -29 16 -61 37 -66c4 -1 7 -1 10 -1c22 0 37 19 37 48c0 6 -1 13 -2 20c-6 32 -16 43 -40 43c-18 0 -36 -12 -40 -27z" />
</svg>
