<?xml version="1.0" standalone="no"?>
<!DOCTYPE svg PUBLIC "-//W3C//DTD SVG 1.1//EN" "http://www.w3.org/Graphics/SVG/1.1/DTD/svg11.dtd" >
<svg xmlns="http://www.w3.org/2000/svg" xmlns:xlink="http://www.w3.org/1999/xlink" version="1.1" viewBox="-10 0 487 1024">
   <path fill="currentColor"
d="M45 1348c-22 -28 -24 -51 -19 -143c6 -119 45 -221 116 -299c48 -56 86 -119 102 -180c13 -48 26 -104 31 -120s16 -68 25 -120s20 -92 25 -92s18 7 31 17c11 9 17 16 17 32s-6 40 -16 83c-13 53 -24 119 -25 147v9c0 37 6 43 35 48c21 3 43 12 49 18c4 4 6 11 6 19
c0 23 -17 53 -37 53c-52 0 -117 113 -139 236c-30 164 -60 262 -91 292c-22 20 -41 31 -59 31s-34 -11 -51 -31zM168 1141c13 -52 25 -100 26 -153c1 -10 -2 -33 -18 -20c-42 64 -88 163 -88 234c0 4 1 8 1 12c0 0 -1 21 -1 45v18c3 13 3 26 13 34c14 -1 17 -18 23 -28
c21 -45 31 -94 44 -142zM364 172c-11 -17 -17 -35 -17 -50c0 -17 7 -32 22 -44c15 -11 24 -17 33 -17c10 0 19 9 31 26c8 12 11 21 11 33c0 10 -2 22 -7 38c-8 27 -21 41 -35 41c-12 0 -25 -9 -38 -27z" />
</svg>
