<?xml version="1.0" standalone="no"?>
<!DOCTYPE svg PUBLIC "-//W3C//DTD SVG 1.1//EN" "http://www.w3.org/Graphics/SVG/1.1/DTD/svg11.dtd" >
<svg xmlns="http://www.w3.org/2000/svg" xmlns:xlink="http://www.w3.org/1999/xlink" version="1.1" viewBox="-10 0 563 1024">
   <path fill="currentColor"
d="M34 805c-24 -44 5 -88 22 -128c18 -70 16 -143 26 -214c12 -115 17 -230 24 -345c4 -30 2 -91 42 -91h5c16 13 21 30 21 49c0 21 -6 44 -6 64v3c-12 135 -27 270 -43 405c27 -3 35 -49 55 -68c30 -45 58 -94 99 -130c17 -10 38 -17 59 -17c19 0 38 6 53 18
c7 11 10 22 10 34c0 27 -15 56 -23 82c-22 52 -49 100 -69 152c60 43 134 62 195 103c14 9 22 29 22 47c0 20 -10 38 -33 38h-3c-45 -2 -91 -16 -133 -32c-63 -27 -121 -89 -182 -97c-39 49 -65 121 -130 132l-6 -1zM308 503c19 -37 27 -68 27 -88c0 -16 -5 -25 -14 -25
c-12 0 -30 14 -52 49c-48 75 -70 120 -70 143c0 13 7 19 22 19c22 0 60 -44 87 -98z" />
</svg>
