<?xml version="1.0" standalone="no"?>
<!DOCTYPE svg PUBLIC "-//W3C//DTD SVG 1.1//EN" "http://www.w3.org/Graphics/SVG/1.1/DTD/svg11.dtd" >
<svg xmlns="http://www.w3.org/2000/svg" xmlns:xlink="http://www.w3.org/1999/xlink" version="1.1" viewBox="-10 0 300 1024">
   <path fill="currentColor"
d="M87 800c-38 -31 -55 -81 -65 -195c-7 -80 -11 -166 11 -308c10 -94 50 -158 68 -248c7 -33 14 -48 23 -48c5 0 11 6 17 16c6 12 27 29 27 48c0 3 -1 7 -2 10c-23 51 -54 153 -76 335c-5 47 -8 90 -8 128c0 75 11 131 40 164c17 19 22 27 33 27c9 0 20 -5 44 -12
c14 -4 26 -6 36 -6c21 0 31 10 31 26c0 8 -2 17 -7 28c-16 36 -61 57 -104 57c-25 0 -49 -7 -68 -22z" />
</svg>
