<?xml version="1.0" standalone="no"?>
<!DOCTYPE svg PUBLIC "-//W3C//DTD SVG 1.1//EN" "http://www.w3.org/Graphics/SVG/1.1/DTD/svg11.dtd" >
<svg xmlns="http://www.w3.org/2000/svg" xmlns:xlink="http://www.w3.org/1999/xlink" version="1.1" viewBox="-10 0 694 1024">
   <path fill="currentColor"
d="M582 724c-2 -32 3 -67 -14 -96c-20 -19 -46 6 -63 18c-31 26 -61 61 -104 62c-3 0 -5 1 -8 1c-26 0 -48 -16 -74 -16c-17 0 -35 7 -56 28c-24 23 -46 50 -78 62c-21 10 -45 16 -69 16s-47 -7 -66 -21c-20 -26 -26 -51 -26 -77c0 -27 6 -55 10 -85c7 -41 9 -81 12 -122
c5 -32 15 -71 47 -86c3 -1 5 -1 8 -1c27 0 29 40 29 61v15c0 46 -5 92 -5 138c0 18 1 37 3 55c2 9 8 12 15 12c19 0 48 -22 59 -28c38 -31 51 -52 80 -92c9 -10 20 -13 32 -13c15 0 31 6 42 12c14 28 19 42 32 42c6 0 14 -3 24 -9c46 -19 75 -63 121 -81
c16 -7 34 -12 52 -12c25 0 49 9 65 30c9 18 11 38 11 58c0 13 -1 27 -1 40v8c-2 54 -4 112 -31 161c-5 12 -18 20 -28 20c-8 0 -15 -5 -15 -18c0 -2 1 -4 1 -7c-3 -25 -5 -50 -5 -75z" />
</svg>
