<?xml version="1.0" standalone="no"?>
<!DOCTYPE svg PUBLIC "-//W3C//DTD SVG 1.1//EN" "http://www.w3.org/Graphics/SVG/1.1/DTD/svg11.dtd" >
<svg xmlns="http://www.w3.org/2000/svg" xmlns:xlink="http://www.w3.org/1999/xlink" version="1.1" viewBox="-10 0 630 1024">
   <path fill="currentColor"
d="M113 800c-41 -6 -74 -42 -81 -82c-10 -50 -1 -103 19 -149c4 -15 19 -29 33 -29c7 0 13 4 18 13c22 34 12 81 38 113c6 5 12 8 19 8c16 0 34 -14 47 -23c55 -43 100 -98 157 -139c43 -31 92 -63 147 -64h2c36 0 64 32 71 65c8 38 11 76 11 115c0 30 -1 61 -4 91
c-5 31 -6 67 -29 91c-5 4 -10 5 -15 5c-17 0 -33 -20 -40 -35c-17 -32 -24 -68 -24 -104c0 -20 2 -39 6 -58c2 -4 2 -9 2 -14c0 -14 -7 -28 -18 -28c-4 0 -9 2 -14 7c-31 23 -53 57 -84 81c-82 62 -143 139 -236 139c-6 0 -11 0 -17 -1c-3 -1 -5 -1 -8 -2z" />
</svg>
