<?xml version="1.0" standalone="no"?>
<!DOCTYPE svg PUBLIC "-//W3C//DTD SVG 1.1//EN" "http://www.w3.org/Graphics/SVG/1.1/DTD/svg11.dtd" >
<svg xmlns="http://www.w3.org/2000/svg" xmlns:xlink="http://www.w3.org/1999/xlink" version="1.1" viewBox="-10 0 466 1024">
   <path fill="currentColor"
d="M77 780c-52 -57 -58 -142 -46 -215c5 -28 11 -57 23 -83c39 -54 63 -121 118 -162c28 -18 62 -27 95 -27s67 9 97 23c35 18 64 55 64 95c0 4 0 7 -1 11c0 34 0 67 7 100c-4 56 -36 106 -63 154c-27 44 -57 88 -100 119c-40 22 -88 27 -133 28c-26 -3 -44 -25 -61 -43z
M235 713c62 -78 105 -170 105 -263v-15c-1 -17 -10 -35 -28 -40c-19 -4 -38 -8 -57 -8c-26 0 -50 8 -66 32c-21 32 -40 67 -49 105c-10 32 -24 46 -26 79c2 36 6 74 21 107c10 18 23 38 45 38h2c22 -3 38 -20 53 -35z" />
</svg>
