<?xml version="1.0" standalone="no"?>
<!DOCTYPE svg PUBLIC "-//W3C//DTD SVG 1.1//EN" "http://www.w3.org/Graphics/SVG/1.1/DTD/svg11.dtd" >
<svg xmlns="http://www.w3.org/2000/svg" xmlns:xlink="http://www.w3.org/1999/xlink" version="1.1" viewBox="-10 0 627 1024">
   <path fill="currentColor"
d="M44 1277c-5.5332 -16.3223 -7.62207 -32.7969 -7.62207 -49.3408c0 -43.2568 14.2822 -86.9814 18.6221 -129.659c22 -130 35 -262 68 -390c15 -65 36 -129 52 -192c30 -73 77 -146 155 -173c21 -9 41 -12 62 -12c32 0 66 8 104 15c50 16 75 58 93 103c2 10 3 21 3 33
c0 58 -21 125 -42 173c-47 71 -73 128 -153 156c-11 3 -23 5 -35 5c-32 0 -66 -13 -75 -46c-2 -6 -3 -12 -3 -18c0 -35 37 -61 71 -61h11c36 0 75 -9 95 -44c23 -34 42 -77 42 -119c0 -21 -4 -41 -15 -60c-18 -26 -45 -37 -74 -37s-59 11 -82 26c-43 19 -34 66 -43 103
c-22 89 -66 171 -75 263c-32 151 -66 301 -108 449c-5 22 -18 34 -31 34c-12 0 -24 -9 -31 -29z" />
</svg>
