<?xml version="1.0" standalone="no"?>
<!DOCTYPE svg PUBLIC "-//W3C//DTD SVG 1.1//EN" "http://www.w3.org/Graphics/SVG/1.1/DTD/svg11.dtd" >
<svg xmlns="http://www.w3.org/2000/svg" xmlns:xlink="http://www.w3.org/1999/xlink" version="1.1" viewBox="-10 0 524 1024">
   <path fill="currentColor"
d="M88 1334c-52 -13 -21 -74 -13 -108c31 -118 71 -232 115 -345c16 -46 34 -92 40 -140c-21 -49 -86 -34 -127 -51c-48 -12 -71 -61 -71 -107v-3c-1 -9 -2 -19 -2 -29c0 -58 19 -118 69 -151c52 -40 116 -76 183 -76c16 0 31 2 47 6c73 24 116 96 141 164c2 6 3 12 3 18
c0 42 -42 73 -60 110c-41 60 -75 137 -93 195c-58 167 -87 318 -129 478c-9 33 -35 47 -63 47c-13 0 -27 -3 -40 -8zM346 560c13 -20 32 -39 35 -64c-6 -46 -60 -92 -114 -97c-80 6 -127 60 -150 118c-4 11 -6 24 -6 36c0 20 6 39 20 54c20 22 52 26 80 28c7 1 14 1 21 1
c23 0 47 -5 65 -20c20 -16 34 -36 49 -56z" />
</svg>
