<?xml version="1.0" standalone="no"?>
<!DOCTYPE svg PUBLIC "-//W3C//DTD SVG 1.1//EN" "http://www.w3.org/Graphics/SVG/1.1/DTD/svg11.dtd" >
<svg xmlns="http://www.w3.org/2000/svg" xmlns:xlink="http://www.w3.org/1999/xlink" version="1.1" viewBox="-10 0 516 1024">
   <path fill="currentColor"
d="M29 774c-17 -20 -20 -47 -11 -71c7 -17 14 -37 14 -65c0 -10 -1 -21 -3 -33v-13c0 -64 7 -93 26 -151c10 -25 19 -54 43 -69h3c17 0 25 34 44 34h2c7 0 13 1 20 1c72 0 153 -23 222 -31c10 -3 21 -5 32 -5c14 0 27 4 38 13c18 14 28 37 28 59c0 12 -3 23 -8 34
c-16 18 -42 14 -64 16c-71 2 -142 8 -212 22c-27 5 -54 22 -63 49c-26 70 -18 147 -47 216c-3 15 -16 23 -28 23c-9 0 -18 -5 -24 -14c-4 -4 -8 -10 -12 -15z" />
</svg>
