<?xml version="1.0" standalone="no"?>
<!DOCTYPE svg PUBLIC "-//W3C//DTD SVG 1.1//EN" "http://www.w3.org/Graphics/SVG/1.1/DTD/svg11.dtd" >
<svg xmlns="http://www.w3.org/2000/svg" xmlns:xlink="http://www.w3.org/1999/xlink" version="1.1" viewBox="-10 0 490 1024">
   <path fill="currentColor"
d="M101 778c-31 -13 -68 -25 -85 -56c-10 -24 -9 -55 10 -74c5 -5 10 -6 15 -6c18 0 39 21 54 29c34 19 68 24 109 26h2c19 0 32 -14 32 -30c0 -5 -1 -10 -4 -15c-19 -81 -65 -154 -77 -237c-2 -9 -3 -18 -3 -27c0 -25 8 -51 28 -64c32 -22 47 -22 85 -30c7 -1 15 -2 23 -2
c47 0 107 22 135 50c15 17 34 37 34 60c0 3 0 6 -1 10c-6 12 -16 16 -28 16c-14 0 -30 -6 -42 -11c-24 -10 -58 -21 -88 -21c-11 0 -21 2 -30 5c-9 5 -12 13 -12 21c0 15 9 32 13 46c16 54 32 107 54 160c7 19 11 38 11 56c0 26 -8 51 -26 73c-24 30 -63 44 -101 44
c-7 0 -14 0 -21 -1c-30 -3 -59 -11 -87 -22z" />
</svg>
