<?xml version="1.0" standalone="no"?>
<!DOCTYPE svg PUBLIC "-//W3C//DTD SVG 1.1//EN" "http://www.w3.org/Graphics/SVG/1.1/DTD/svg11.dtd" >
<svg xmlns="http://www.w3.org/2000/svg" xmlns:xlink="http://www.w3.org/1999/xlink" version="1.1" viewBox="-10 0 542 1024">
   <path fill="currentColor"
d="M151 649c3 -63 17 -124 27 -186c-40 -2 -78 4 -111 -26c-33 -36 -45 -48 -49 -94c66 0 137 7 203 7c41 -91 95 -284 140 -373c20 -21 11 40 20 54c8 8 11 20 11 34c0 25 -9 55 -17 75c-14 35 -75 166 -76 204c82 10 99 36 99 36c5 8 7 15 7 22c0 26 -30 45 -50 45h-1
c-33 3 -47 2 -81 12c-10 31 -21 82 -21 129c0 53 13 100 55 110c20 6 40 8 61 8c30 0 60 -5 88 -16c5 -2 9 -2 13 -2c24 0 40 23 40 47c0 7 -2 15 -5 22c-40 60 -112 61 -176 61h-6c-89 -4 -171 -88 -171 -164v-5z" />
</svg>
