<?xml version="1.0" standalone="no"?>
<!DOCTYPE svg PUBLIC "-//W3C//DTD SVG 1.1//EN" "http://www.w3.org/Graphics/SVG/1.1/DTD/svg11.dtd" >
<svg xmlns="http://www.w3.org/2000/svg" xmlns:xlink="http://www.w3.org/1999/xlink" version="1.1" viewBox="-10 0 505 1024">
   <path fill="currentColor"
d="M379 809c-14 -27 -26 -56 -26 -87c-14 -22 -40 17 -54 26c-43 42 -103 63 -163 63c-34 0 -52 -33 -69 -58c-36 -60 -47 -130 -47 -199c0 -33 9 -64 9 -96c0 -4 -1 -9 -1 -13c0 -7 -1 -13 -1 -20c0 -28 5 -57 25 -78c8 -10 20 -15 32 -15c13 0 26 6 33 19c6 9 9 19 9 29
c0 22 -11 46 -14 68c-1 11 -2 21 -2 32c0 46 11 91 24 135c4 25 45 61 73 61c5 0 9 -1 13 -3c40 -21 90 -55 108 -96c6 -18 8 -39 8 -60c0 -28 -3 -59 -3 -87c0 -23 2 -45 9 -64c7 -16 21 -22 36 -22s31 6 41 16c19 18 26 43 26 69c0 12 -2 24 -4 35c-1 7 -1 14 -1 21
c0 53 16 104 27 155c7 35 13 72 13 108c0 23 -3 46 -9 69c-4 18 -20 38 -39 38c-6 0 -11 -2 -17 -6c-16 -10 -27 -24 -36 -40z" />
</svg>
