<?xml version="1.0" standalone="no"?>
<!DOCTYPE svg PUBLIC "-//W3C//DTD SVG 1.1//EN" "http://www.w3.org/Graphics/SVG/1.1/DTD/svg11.dtd" >
<svg xmlns="http://www.w3.org/2000/svg" xmlns:xlink="http://www.w3.org/1999/xlink" version="1.1" viewBox="-10 0 565 1024">
   <path fill="currentColor"
d="M124 773c-43 -31 -61 -156 -69 -208c-12 -72 -39 -133 -35 -205c1 -9 2 -17 2 -25c0 -25 -5 -44 -5 -54c0 -5 1 -8 5 -8c2 0 5 0 9 2c26 11 77 110 81 133c4 68 2 187 43 246c11 16 21 32 32 48c37 -51 77 -101 102 -159c22 -48 44 -98 48 -151c-8 -21 -19 -42 -19 -66
v-8v-6c0 -27 5 -36 22 -36c5 0 12 1 19 2c45 -4 82 -25 125 -25c6 0 12 0 18 1c25 4 37 27 37 51c0 21 -9 41 -30 48c-108 30 -111 124 -141 245c-18 61 -51 118 -93 166c-20 22 -51 41 -81 41c-11 0 -22 -3 -32 -8c-14 -6 -26 -15 -38 -24z" />
</svg>
