<?xml version="1.0" standalone="no"?>
<!DOCTYPE svg PUBLIC "-//W3C//DTD SVG 1.1//EN" "http://www.w3.org/Graphics/SVG/1.1/DTD/svg11.dtd" >
<svg xmlns="http://www.w3.org/2000/svg" xmlns:xlink="http://www.w3.org/1999/xlink" version="1.1" viewBox="-10 0 718 1024">
   <path fill="currentColor"
d="M24 704c-4 -27 -17 -202 -10 -240c35 -64 24 -103 34 -103c2 0 4 1 8 4c27 20 25 85 29 116c5 70 -4 147 30 210c7 15 18 20 31 20c14 0 29 -6 41 -12c28 -7 56 -41 65 -88c10 -32 6 -38 37 -54c6 -1 12 -1 18 -1c22 0 38 9 52 50c12 36 52 58 89 58c4 0 7 -1 11 -1
c36 -6 40 -49 45 -78c2 -16 3 -33 3 -49c0 -44 -7 -89 -17 -131c-1 -4 -2 -9 -2 -14c0 -24 16 -53 40 -53c2 0 4 1 6 1c27 12 52 34 84 34h4c3 1 6 1 9 1c12 0 27 -4 39 -4c13 0 23 4 23 22c0 2 1 5 1 7c0 24 -25 29 -47 29c-5 0 -10 -1 -14 -1c-4 -1 -7 -2 -11 -2
c-23 0 -34 21 -34 43c0 4 0 7 1 11c-3 74 -2 151 -24 223c-10 34 -40 60 -75 63c-13 2 -26 3 -39 3c-39 0 -78 -9 -104 -40l-32 -32c-25 34 -43 75 -79 98c-32 17 -64 26 -101 26c-11 0 -22 0 -34 -2c-44 -13 -69 -78 -77 -114z" />
</svg>
