<?xml version="1.0" standalone="no"?>
<!DOCTYPE svg PUBLIC "-//W3C//DTD SVG 1.1//EN" "http://www.w3.org/Graphics/SVG/1.1/DTD/svg11.dtd" >
<svg xmlns="http://www.w3.org/2000/svg" xmlns:xlink="http://www.w3.org/1999/xlink" version="1.1" viewBox="-10 0 601 1024">
   <path fill="currentColor"
d="M41 793c-22 -17 -40 -45 -16 -69c35 -57 77 -109 128 -152c47 -37 17 -15 55 -42c-38 -54 -129 -117 -157 -178c-3 -10 -4 -19 -4 -27c0 -39 30 -58 49 -58c2 0 4 1 6 1c10 15 5 14 62 81c40 61 67 84 126 123c30 -14 49 -37 69 -53c47 -30 89 -78 142 -95
c18 -6 42 -21 57 -21c7 0 12 4 13 14c-7 29 0 18 -23 35c-49 32 -142 143 -187 181c2 25 22 49 33 73c29 54 81 93 87 156v6c0 28 -28 45 -54 45h-6h-7c-24 0 -39 -15 -39 -45c-15 -45 -95 -160 -119 -160c-2 0 -3 1 -4 2c-28 28 -55 65 -81 99c-20 28 -58 103 -94 103
c-3 0 -7 -1 -10 -2c-10 -4 -19 -10 -26 -17z" />
</svg>
