<?xml version="1.0" standalone="no"?>
<!DOCTYPE svg PUBLIC "-//W3C//DTD SVG 1.1//EN" "http://www.w3.org/Graphics/SVG/1.1/DTD/svg11.dtd" >
<svg xmlns="http://www.w3.org/2000/svg" xmlns:xlink="http://www.w3.org/1999/xlink" version="1.1" viewBox="-10 0 580 1024">
   <path fill="currentColor"
d="M57 1115c-5 -9 -7 -19 -7 -28c0 -28 18 -57 29 -82c46 -92 94 -183 147 -271c19 -44 56 -78 75 -122c3 -7 4 -15 4 -22c0 -32 -27 -60 -44 -86c-30 -48 -60 -97 -79 -150c4 -16 17 -22 32 -22c20 0 44 12 52 24c38 43 54 107 85 155c7 9 13 12 19 12c19 0 35 -36 49 -50
c27 -27 60 -79 97 -91h1c18 0 25 11 25 26c0 25 -18 60 -31 72c-37 42 -79 80 -111 127c-67 94 -120 197 -176 297c-36 66 -70 132 -102 200c-8 18 -24 32 -39 32c-10 0 -19 -5 -26 -21z" />
</svg>
