<?xml version="1.0" standalone="no"?>
<!DOCTYPE svg PUBLIC "-//W3C//DTD SVG 1.1//EN" "http://www.w3.org/Graphics/SVG/1.1/DTD/svg11.dtd" >
<svg xmlns="http://www.w3.org/2000/svg" xmlns:xlink="http://www.w3.org/1999/xlink" version="1.1" viewBox="-10 0 564 1024">
   <path fill="currentColor"
d="M129 669c1 -31 34 -69 35 -100c-26 -15 -91 23 -118 6c-15 -11 -29 -33 -29 -54c0 -10 4 -21 12 -28c31 -17 69 -15 103 -18c53 -2 107 1 159 -15c14 -6 21 -21 21 -35c0 -15 -7 -30 -21 -37c-22 -11 -46 -15 -71 -15c-23 0 -46 3 -69 5c-13 0 -28 2 -43 2
c-16 0 -32 -2 -44 -13c-3 -7 -5 -16 -5 -25c0 -23 11 -48 34 -52c18 -2 37 -3 55 -3c83 0 168 20 237 68c20 13 35 37 35 60c0 10 -2 20 -9 28c-38 21 -52 32 -52 39s16 9 38 12c23 0 32 1 32 6s-9 14 -24 30c-22 24 -56 32 -87 33c-40 10 -81 37 -95 78c-1 3 -1 7 -1 10
c0 33 31 61 62 68c20 6 40 9 60 9c49 0 98 -16 143 -37c21 -10 32 -15 37 -15c3 0 4 1 4 4c0 6 -6 18 -13 38c-22 53 -88 100 -139 103c-10 1 -21 2 -32 2c-100 0 -197 -48 -215 -154z" />
</svg>
