<?xml version="1.0" standalone="no"?>
<!DOCTYPE svg PUBLIC "-//W3C//DTD SVG 1.1//EN" "http://www.w3.org/Graphics/SVG/1.1/DTD/svg11.dtd" >
<svg xmlns="http://www.w3.org/2000/svg" xmlns:xlink="http://www.w3.org/1999/xlink" version="1.1" viewBox="-10 0 458 1024">
   <path fill="currentColor"
d="M152 794c-69 -46 -123 -181 -124 -208c10 -50 46 -78 83 -118c26 -30 54 -59 78 -91c-32 -4 -50 -57 -19 -74c3 -2 7 -3 11 -3c13 0 29 8 40 8c7 0 11 -3 13 -12c3 -19 6 -39 6 -58s-3 -37 -11 -54c-5 -15 -7 -30 -7 -45c0 -50 24 -99 68 -124c21 -14 48 -25 74 -25
c17 0 33 5 47 17c6 6 8 15 8 23c0 17 -11 34 -25 34c-5 0 -11 -2 -17 -8c-3 0 -6 -1 -9 -1c-36 0 -73 34 -75 74c-1 11 -2 21 -2 30c0 19 3 36 12 56c3 12 4 23 4 35c0 51 -24 102 -44 144c-49 68 -112 117 -158 188c-2 6 -2 12 -2 18c0 31 18 60 31 88c17 28 38 64 72 64
c3 0 6 0 10 -1c46 -5 86 -34 121 -63c4 -1 7 -2 10 -2c15 0 22 13 22 28c0 16 -8 35 -24 40c-31 23 -59 52 -99 58c-9 2 -17 3 -26 3c-24 0 -48 -7 -68 -21z" />
</svg>
