<?xml version="1.0" standalone="no"?>
<!DOCTYPE svg PUBLIC "-//W3C//DTD SVG 1.1//EN" "http://www.w3.org/Graphics/SVG/1.1/DTD/svg11.dtd" >
<svg xmlns="http://www.w3.org/2000/svg" xmlns:xlink="http://www.w3.org/1999/xlink" version="1.1" viewBox="-10 0 342 1024">
   <path fill="currentColor"
d="M128 794c-22 -22 -12 -56 -12 -84c9 -123 31 -245 31 -369v-8c-2 -11 -3 -22 -3 -33c0 -33 8 -66 17 -98c4 -18 6 -36 6 -55c0 -17 -2 -35 -4 -52v-9c0 -27 12 -58 41 -63c5 -1 10 -2 15 -2c21 0 41 13 41 37c2 17 3 34 3 51c0 47 -6 96 -10 142c-11 109 -21 218 -28 327
c-6 67 -11 135 -25 201c-5 21 -20 31 -37 31c-12 0 -25 -6 -35 -16z" />
</svg>
