<?xml version="1.0" standalone="no"?>
<!DOCTYPE svg PUBLIC "-//W3C//DTD SVG 1.1//EN" "http://www.w3.org/Graphics/SVG/1.1/DTD/svg11.dtd" >
<svg xmlns="http://www.w3.org/2000/svg" xmlns:xlink="http://www.w3.org/1999/xlink" version="1.1" viewBox="-10 0 439 1024">
   <path fill="currentColor"
d="M112 802c-28 -10 -89 -30 -68 -66c11 -5 22 -7 34 -7c27 0 56 10 82 14c12 5 25 8 38 8c25 0 50 -10 64 -33c24 -33 23 -73 24 -112c-10 -40 -59 -66 -78 -102c-15 -27 -28 -53 -28 -82c0 -10 1 -21 5 -33c2 -6 3 -11 3 -16c0 -28 -30 -48 -30 -75c0 -3 0 -7 1 -10
c19 -47 60 -77 99 -110c22 -24 71 -47 71 -80c0 -4 0 -9 -2 -13c-25 -30 -62 -30 -99 -36c-11 -7 -15 -15 -15 -23c0 -17 21 -32 42 -32c6 0 12 1 18 4c50 8 99 36 120 80c2 7 2 13 2 19c0 41 -31 78 -61 106c-29 30 -63 56 -97 81c-3 6 -5 11 -5 15c0 25 58 18 73 36
c10 8 14 17 14 26c0 16 -14 31 -34 31c-4 0 -8 -1 -12 -2c-3 0 -5 -1 -7 -1c-19 0 -26 12 -26 26s7 30 14 40c20 30 40 60 63 89c21 27 34 60 34 93c0 8 0 15 -2 23c-5 61 -35 129 -102 149c-17 5 -34 7 -52 7c-28 0 -57 -5 -83 -14z" />
</svg>
