<?xml version="1.0" standalone="no"?>
<!DOCTYPE svg PUBLIC "-//W3C//DTD SVG 1.1//EN" "http://www.w3.org/Graphics/SVG/1.1/DTD/svg11.dtd" >
<svg xmlns="http://www.w3.org/2000/svg" xmlns:xlink="http://www.w3.org/1999/xlink" version="1.1" viewBox="-10 0 739 1024">
   <path fill="currentColor"
d="M352 557c-30 -13 -59 -30 -81 -55c-32 -31 -28 -95 -50 -119c-22 -7 -37 18 -51 32c-27 31 -45 72 -79 97c-3 2 -6 2 -9 2c-14 0 -23 -16 -23 -31c0 -7 2 -14 6 -19c27 -59 59 -108 103 -146c11 -8 28 -21 43 -21c5 0 10 2 14 5c3 24 39 19 44 44c22 41 32 91 71 121
c18 13 38 18 59 18c23 0 46 -6 68 -13c50 -6 101 -64 136 -64h1h2c14 0 20 8 20 18c0 11 -7 24 -17 31c-38 26 -69 66 -107 80c-32 15 -71 26 -107 26c-15 0 -30 -2 -43 -6z" />
</svg>
