<?xml version="1.0" standalone="no"?>
<!DOCTYPE svg PUBLIC "-//W3C//DTD SVG 1.1//EN" "http://www.w3.org/Graphics/SVG/1.1/DTD/svg11.dtd" >
<svg xmlns="http://www.w3.org/2000/svg" xmlns:xlink="http://www.w3.org/1999/xlink" version="1.1" viewBox="-10 0 463 1024">
   <path fill="currentColor"
d="M109 995c-12 -17 -18 -39 -15 -53c10 -46 36 -236 49 -360c18 -168 23 -189 39 -189c7 0 15 -13 18 -28c3 -18 11 -27 21 -27c9 0 19 7 29 20c7 9 10 18 10 31c0 10 -2 23 -6 42c-10 52 -21 115 -51 305c-9 54 -16 128 -16 163c0 62 -10 87 -46 116c-1 1 -3 1 -5 1
c-8 0 -18 -8 -27 -21v0zM217 202c-10 -8 -16 -27 -16 -53c0 -35 2 -41 25 -48c8 -2 15 -4 22 -4c10 0 19 3 30 9c15 7 20 13 20 26c0 6 -1 14 -3 25c-6 36 -24 57 -47 57c-10 0 -20 -4 -31 -12z" />
</svg>
