<?xml version="1.0" standalone="no"?>
<!DOCTYPE svg PUBLIC "-//W3C//DTD SVG 1.1//EN" "http://www.w3.org/Graphics/SVG/1.1/DTD/svg11.dtd" >
<svg xmlns="http://www.w3.org/2000/svg" xmlns:xlink="http://www.w3.org/1999/xlink" version="1.1" viewBox="-10 0 742 1024">
   <path fill="currentColor"
d="M74 967c-55 -14 -23 -39 -16 -54c34 -73 112 -223 142 -310c-21 -27 -52 -66 -52 -105c0 -6 1 -13 3 -19c36 -94 146 -167 222 -231c67 -79 94 -179 136 -270c6 -14 19 -20 35 -20c25 0 53 15 53 36c0 4 -1 8 -4 13c-30 62 -64 122 -88 187c26 5 46 30 46 49
c0 12 -7 21 -26 21c-4 0 -9 0 -14 -1h-6c-45 0 -67 45 -86 76c-41 72 -87 142 -111 221c-1 4 -1 7 -1 10c0 37 68 29 99 33c73 -1 152 -1 217 -36c10 -8 26 -11 42 -11c24 0 48 8 48 21c0 7 -7 15 -22 25c-98 31 -198 56 -300 56c-41 0 -83 -4 -125 -13
c-41 94 -99 204 -142 296c-8 17 -15 31 -31 31c-5 0 -12 -1 -19 -5zM238 449c-8 12 -14 27 -18 41c-2 10 -3 21 5 29c4 7 16 13 18 9c13 -18 25 -46 35 -66c11 -23 49 -87 55 -111c-37 30 -71 61 -95 98z" />
</svg>
