<?xml version="1.0" standalone="no"?>
<!DOCTYPE svg PUBLIC "-//W3C//DTD SVG 1.1//EN" "http://www.w3.org/Graphics/SVG/1.1/DTD/svg11.dtd" >
<svg xmlns="http://www.w3.org/2000/svg" xmlns:xlink="http://www.w3.org/1999/xlink" version="1.1" viewBox="-10 0 623 1024">
   <path fill="currentColor"
d="M309 851c-33 -10 -60 -30 -86 -52c-28 -15 -72 -24 -96 -6c-12 16 -31 25 -47 25s-30 -9 -31 -29c0 -48 14 -65 37 -90c42 -49 70 -99 79 -175c1 -9 2 -18 2 -28c0 -23 -5 -46 -28 -46c-4 0 -8 1 -13 2c-35 -2 -80 -20 -85 -60v-2c0 -37 46 -40 73 -44h7
c24 0 37 -16 37 -37c0 -7 -1 -13 -4 -21c-1 -12 -2 -24 -2 -36c0 -115 55 -227 154 -238h10c75 0 146 42 196 97c28 34 51 77 51 122c-3 18 -9 25 -16 25c-19 0 -47 -48 -59 -62c-35 -39 -70 -92 -127 -94c-4 -1 -8 -1 -12 -1c-31 0 -61 17 -81 42c-29 24 -39 61 -39 97
c-1 10 -1 21 -1 33c0 28 5 58 31 72c59 28 133 18 186 61c10 8 13 17 13 26c0 20 -22 38 -45 38c-4 0 -8 0 -11 -1h-12c-36 0 -71 -6 -106 -6c-10 0 -20 1 -30 2c-24 68 -37 152 -46 211c16 34 41 51 79 71c17 16 41 27 65 27c17 0 34 -6 48 -19c43 -26 106 -98 136 -98
c8 0 14 5 16 17c-6 98 -89 172 -167 192c-3 0 -6 1 -9 1c-23 0 -45 -10 -67 -16z" />
</svg>
