<?xml version="1.0" standalone="no"?>
<!DOCTYPE svg PUBLIC "-//W3C//DTD SVG 1.1//EN" "http://www.w3.org/Graphics/SVG/1.1/DTD/svg11.dtd" >
<svg xmlns="http://www.w3.org/2000/svg" xmlns:xlink="http://www.w3.org/1999/xlink" version="1.1" viewBox="-10 0 806 1024">
   <path fill="currentColor"
d="M650.103 758.995c-49.3242 -9.86523 -71.9766 -60.5732 -111.681 -85.9385c-42.8936 14.4971 -83.6338 39.2832 -130.206 39.1494c-50.4883 7.86914 -96.001 -24.375 -128.972 -59.1562c-42.7803 -31.5117 -76.9482 26.5439 -103.024 52.8379
c-24.7021 31.3008 -87.8018 73.6426 -111.741 19.127c-6.99316 -91.2197 102.182 -127.391 116.059 -250.761c6.90527 -38.3887 -2.21582 -78.0898 1.54102 -117.062c0.387695 -32.5576 19.335 -65.4248 2.48438 -96.9199
c-25.6602 -54.2949 -83.8291 -88.3164 -97.7881 -149.279c-22.6523 -51.0244 34.5566 -83.1133 78.5625 -72.5547c37.8721 6.87109 21.1729 70.9258 60.3438 86.6787c48.5693 45.7695 119.947 35.8555 181.017 39.2002c48.0693 1.87012 96.1504 5.6084 143.625 13.5791
c44.7979 -11.1729 54.3291 -66.2588 91.9385 -89.1367c27.6533 -33.3096 87.6875 -28.4209 96.3281 17.9453c4.8457 43.2764 -27.5088 78.6475 -48.2969 113.653c-21.9746 32.5762 -44.6904 69.6367 -49.5137 109.575c30.2012 52.3467 8.10156 153.927 -17.8672 207.695
c-17.4678 36.042 3.90332 72.6123 34.8994 91.8633c30.9404 22.377 65.3291 45.9473 75.9453 84.9307c14.6543 46.1572 -47.043 75.6914 -79.5186 45.1641zM538 307c-27.5 -48.7695 -85.7803 -57.5664 -131.399 -61.3369
c-51.4092 -3.67383 -81.0977 11.4541 -108.121 52.793c-43.2344 73.8896 -26.8223 152.934 -23.5156 219.102c12.5029 44.5469 86.1895 76.2715 129.809 87.2852c157.731 -21.9951 183.695 -188.796 133.228 -297.843z" />
</svg>
