<?xml version="1.0" standalone="no"?>
<!DOCTYPE svg PUBLIC "-//W3C//DTD SVG 1.1//EN" "http://www.w3.org/Graphics/SVG/1.1/DTD/svg11.dtd" >
<svg xmlns="http://www.w3.org/2000/svg" xmlns:xlink="http://www.w3.org/1999/xlink" version="1.1" viewBox="-10 0 668 1024">
   <path fill="currentColor"
d="M148 800c-3 -11 -4 -22 -4 -33c0 -32 9 -64 15 -94c7 -38 23 -72 41 -106c-24 -16 -107 -17 -125 -50c-10 -10 -16 -23 -16 -34c0 -16 11 -30 32 -30c3 0 7 0 11 1c7 -1 14 -1 21 -1c18 0 37 1 57 1c18 0 36 0 55 -4c0 0 1 -1 11 -35c-53 -6 -179 10 -179 -50
c0 -5 1 -11 3 -17c6 -21 24 -26 43 -26c14 0 29 3 41 3h6c12 0 29 2 46 2c22 0 42 -3 46 -17c-74 -41 -98 -218 -98 -291c4 -9 13 -12 24 -12c16 0 35 7 43 15c7 36 3 73 15 108c16 54 57 113 101 150c39 -45 61 -87 103 -146c20 -25 35 -40 71 -64h3c26 0 47 24 47 47
c0 10 -4 19 -12 27c-46 54 -87 123 -129 187c48 26 156 42 193 94c2 5 3 9 3 13c0 18 -19 24 -38 24c-12 0 -25 -3 -34 -6c-50 -11 -136 -44 -187 -49c0 0 -24 32 -41 65c43 3 124 19 164 37c9 8 13 17 13 27c0 21 -17 42 -40 42c-3 0 -7 0 -11 -1c-41 0 -82 -17 -123 -17
l-27 3c-32 52 -59 130 -67 193c0 26 -24 61 -50 61c-8 0 -16 -3 -24 -12l-3 -5v0z" />
</svg>
