<?xml version="1.0" standalone="no"?>
<!DOCTYPE svg PUBLIC "-//W3C//DTD SVG 1.1//EN" "http://www.w3.org/Graphics/SVG/1.1/DTD/svg11.dtd" >
<svg xmlns="http://www.w3.org/2000/svg" xmlns:xlink="http://www.w3.org/1999/xlink" version="1.1" viewBox="-10 0 555 1024">
   <path fill="currentColor"
d="M124 791c-34 -9 -71 -14 -101 -32c-24 -19 -21 -71 20 -68c4 -1 8 -1 12 -1c37 0 64 26 101 28c28 3 57 15 86 15c7 0 14 0 21 -2c24 -16 47 -47 47 -75c0 -4 -1 -8 -2 -12c-33 -24 -79 -24 -114 -44c-57 -31 -74 -92 -74 -153c0 -9 0 -18 1 -26c16 -51 31 -71 63 -127
c-15 -26 -45 -59 -45 -91c0 -4 0 -7 1 -11v-3c0 -30 14 -53 57 -86c58 -53 137 -62 209 -62c29 0 57 2 81 2h3c17 0 26 16 26 32c0 13 -6 26 -21 26c-63 8 -132 3 -194 22c-36 17 -72 42 -86 78v7c0 30 26 57 56 57c3 0 7 0 10 -1c70 7 118 38 150 83c5 10 11 28 11 43
c0 14 -5 26 -21 26c-43 -17 -61 -64 -105 -78c-12 0 -28 -2 -43 -2c-22 0 -42 4 -50 22c-15 20 -33 44 -37 71c-2 7 -3 14 -3 21c0 57 58 111 121 111c6 0 12 -1 18 -2c35 -8 42 -68 49 -95c-1 -29 -9 -32 -9 -36c0 -2 2 -3 7 -8h4c32 0 56 28 56 56c0 7 -2 14 -5 20
c-11 36 -28 72 -54 102c-6 32 -2 67 -18 98c-15 39 -32 86 -79 101c-17 6 -34 8 -52 8c-33 0 -66 -8 -97 -14z" />
</svg>
