<?xml version="1.0" standalone="no"?>
<!DOCTYPE svg PUBLIC "-//W3C//DTD SVG 1.1//EN" "http://www.w3.org/Graphics/SVG/1.1/DTD/svg11.dtd" >
<svg xmlns="http://www.w3.org/2000/svg" xmlns:xlink="http://www.w3.org/1999/xlink" version="1.1" viewBox="-10 0 740 1024">
   <path fill="currentColor"
d="M299 812c-59 -17 -108 -56 -161 -85c-56 -43 -97 -107 -104 -178c-9 -146 26 -267 108 -371c52 -57 142 -116 212 -127c22 -6 42 -8 62 -8c77 0 141 38 185 81c44 33 76 81 87 135c9 37 14 75 14 113c0 67 -14 134 -38 196c-8 32 -31 56 -44 85c-17 38 -46 68 -77 95
c-31 25 -62 50 -100 63c-22 7 -46 10 -69 10c-25 0 -51 -4 -75 -9zM526 649c38 -59 77 -126 83 -190c7 -50 9 -101 13 -151c0 -51 -32 -97 -72 -126c-29 -18 -48 -36 -61 -59c-10 -9 -26 -13 -44 -13c-64 0 -162 46 -190 73c-54 47 -94 110 -110 180c-12 52 -28 101 -28 152
c0 15 1 30 4 45c37 87 140 160 220 186c79 -2 133 -37 185 -97zM212 569c-16 -21 -23 -47 -23 -73c0 -25 6 -49 15 -72c18 -45 44 -87 71 -127c26 -34 57 -67 93 -90c21 -12 46 -23 70 -23c10 0 19 2 29 6c15 8 22 24 22 41c0 11 -3 23 -8 32c-11 16 -34 9 -51 13
c-28 12 -47 37 -68 58c-31 36 -67 86 -86 130c-1 3 -2 5 -2 8c0 34 91 53 120 53h5c54 -13 91 -21 112 -21c8 0 13 1 17 3c3 5 4 14 4 25c0 18 -3 42 -9 59c-37 24 -86 33 -134 33c-75 0 -149 -23 -177 -55z" />
</svg>
