<?xml version="1.0" standalone="no"?>
<!DOCTYPE svg PUBLIC "-//W3C//DTD SVG 1.1//EN" "http://www.w3.org/Graphics/SVG/1.1/DTD/svg11.dtd" >
<svg xmlns="http://www.w3.org/2000/svg" xmlns:xlink="http://www.w3.org/1999/xlink" version="1.1" viewBox="-10 0 527 1024">
   <path fill="currentColor"
d="M265.565 447.425c-17.3066 70.0176 -34.6504 136.827 -23.2705 145.092c19.4502 21.4463 129.701 66.1514 133.171 67.2383c70.2637 22 76.1279 20.7695 78.9463 -16.585c4.32422 -57.3379 -17.9912 -83.0371 -70.1279 -106.431
c-45.5869 -20.4561 -48.5898 -36.9941 -43.4463 -77.9316c3.04004 -24.1885 28.8535 -92.9072 43.8496 -152.711s34.6826 -64.4609 27.2646 -115.381c-6.44336 -44.2324 -34.8281 -50.1543 -48.1104 -61.6533zM321.638 712.337
c-11.5713 21.9902 -36.7959 27.6152 -123.828 27.6152c-108.04 0 -109.362 -0.415039 -114.938 -42.7158v0.00292969c-6.35645 -48.1133 0.874023 -85.7871 40.7793 -212.112c15.2607 -48.3311 34.3135 -111.599 42.3369 -140.597
c66.083 -238.794 94.7598 -271.52 135.635 -212.569c-13.9209 179.217 -104.897 388.854 -138.235 510.598c85.8418 1.67383 168.243 15.0605 158.251 69.7783z" />
</svg>
