<?xml version="1.0" standalone="no"?>
<!DOCTYPE svg PUBLIC "-//W3C//DTD SVG 1.1//EN" "http://www.w3.org/Graphics/SVG/1.1/DTD/svg11.dtd" >
<svg xmlns="http://www.w3.org/2000/svg" xmlns:xlink="http://www.w3.org/1999/xlink" version="1.1" viewBox="-10 0 620 1024">
   <path fill="currentColor"
d="M463 613c-12 -13 -15 -31 -15 -48c0 -9 1 -18 2 -27c4 -40 15 -80 19 -121c-79 7 -158 11 -236 26c-35 6 -67 27 -104 29h-1c-25 0 -45 -23 -45 -47c0 -3 0 -6 1 -9c2 -19 19 -32 37 -32c26 -13 37 -18 64 -19h14c51 0 102 -9 153 -13c39 -3 71 -11 116 -23
c6 -3 13 -5 20 -5c16 0 33 9 46 18c5 5 6 14 6 22c0 14 -4 29 -4 29c-7 64 -6 129 -17 192c-4 16 -11 43 -32 43h-3c-8 -2 -15 -9 -21 -15z" />
</svg>
