<?xml version="1.0" standalone="no"?>
<!DOCTYPE svg PUBLIC "-//W3C//DTD SVG 1.1//EN" "http://www.w3.org/Graphics/SVG/1.1/DTD/svg11.dtd" >
<svg xmlns="http://www.w3.org/2000/svg" xmlns:xlink="http://www.w3.org/1999/xlink" version="1.1" viewBox="-10 0 306 1024">
   <path fill="currentColor"
d="M122 202c-31 -11 -58 -38 -65 -71c-4 -23 5 -47 18 -66c8 -11 18 -20 31 -25c25 -12 52 -23 80 -23h7c20 1 42 13 46 35c2 12 3 23 3 35c0 10 -1 21 -2 31c-5 33 -20 67 -50 84c-8 6 -18 11 -28 11c-2 0 -5 0 -7 -1c-11 -2 -22 -6 -33 -10zM187 125c4 -15 7 -26 7 -35
c0 -16 -8 -23 -24 -23c-6 0 -13 1 -22 3c-30 7 -48 27 -48 50c0 10 3 21 11 31c11 14 23 20 34 20c17 0 33 -16 42 -46z" />
</svg>
