<?xml version="1.0" standalone="no"?>
<!DOCTYPE svg PUBLIC "-//W3C//DTD SVG 1.1//EN" "http://www.w3.org/Graphics/SVG/1.1/DTD/svg11.dtd" >
<svg xmlns="http://www.w3.org/2000/svg" xmlns:xlink="http://www.w3.org/1999/xlink" version="1.1" viewBox="-10 0 620 1024">
   <path fill="currentColor"
d="M46 1194c-25 -30 -15 -71 -4 -104c12 -70 23 -140 39 -209c23 -128 34 -259 82 -380c13 -35 27 -70 47 -102c7 -3 14 -5 20 -5c31 0 52 39 52 70v7c8 52 38 98 73 135c4 1 8 2 12 2c37 0 60 -48 83 -71c24 -22 37 -80 73 -80c6 0 12 1 19 5c14 12 18 27 18 43
c0 20 -6 43 -6 62v7c-4 32 -4 64 -4 96s1 64 1 96c1 3 1 7 1 10c0 20 -15 37 -31 37c-8 0 -17 -5 -23 -18c-24 -37 -23 -82 -27 -124c-5 -17 -11 -23 -18 -23c-13 0 -30 20 -63 36c-7 1 -13 2 -20 2c-37 0 -71 -20 -93 -51c-9 -8 -17 -11 -24 -11c-21 0 -33 27 -33 52
c-31 120 -66 240 -90 361c-9 50 -4 105 -32 149c-7 8 -14 20 -27 20c-7 0 -15 -3 -25 -12z" />
</svg>
