<?xml version="1.0" standalone="no"?>
<!DOCTYPE svg PUBLIC "-//W3C//DTD SVG 1.1//EN" "http://www.w3.org/Graphics/SVG/1.1/DTD/svg11.dtd" >
<svg xmlns="http://www.w3.org/2000/svg" xmlns:xlink="http://www.w3.org/1999/xlink" version="1.1" viewBox="-10 0 716 1024">
   <path fill="currentColor"
d="M324.211 447.425c17.3066 70.0176 34.6494 136.827 23.2705 145.092c-19.4502 21.4463 -129.702 66.1514 -133.172 67.2383c-70.2627 22 -76.1279 20.7695 -78.9453 -16.585c-4.3252 -57.3379 17.9912 -83.0371 70.1279 -106.431
c45.5859 -20.4561 48.5898 -36.9941 43.4453 -77.9316c-3.03906 -24.1885 -28.8525 -92.9072 -43.8486 -152.711s-34.6826 -64.4609 -27.2646 -115.381c6.44336 -44.2324 34.8271 -50.1543 48.1104 -61.6533zM268.139 712.337
c-9.99219 -54.7178 72.4092 -68.1045 158.251 -69.7783c-33.3389 -121.744 -124.315 -331.381 -138.235 -510.598c40.875 -58.9502 69.5518 -26.2246 135.634 212.569c8.02441 28.998 27.0762 92.2656 42.3379 140.597c39.9053 126.325 47.1348 163.999 40.7793 212.112
v-0.00292969c-5.57715 42.3008 -6.89844 42.7158 -114.939 42.7158c-87.0312 0 -112.256 -5.625 -123.827 -27.6152z" />
</svg>
