<?xml version="1.0" standalone="no"?>
<!DOCTYPE svg PUBLIC "-//W3C//DTD SVG 1.1//EN" "http://www.w3.org/Graphics/SVG/1.1/DTD/svg11.dtd" >
<svg xmlns="http://www.w3.org/2000/svg" xmlns:xlink="http://www.w3.org/1999/xlink" version="1.1" viewBox="-10 0 454 1024">
   <path fill="currentColor"
d="M117 992c-45 -40 -90 -91 -91 -154c-3 -48 33 -86 61 -121c30 -38 67 -73 84 -120c3 -10 4 -21 4 -31c0 -25 -8 -49 -30 -63c-20 -12 -38 -30 -38 -53c0 -3 0 -5 1 -8v-4c0 -22 21 -28 40 -28c4 0 8 0 12 1h3c27 0 53 12 67 34c17 24 20 45 29 74c-1 37 -5 77 -20 110
c-30 63 -70 119 -105 178c-9 11 -14 24 -14 36c0 10 3 20 12 29c11 21 47 54 75 54c3 0 5 0 7 -1c68 -16 93 -95 155 -123c24 0 25 39 30 58v6c0 33 -29 54 -50 77c-34 26 -93 74 -126 74h-5c-34 0 -72 -3 -101 -25zM123 252c-17 -16 -25 -26 -25 -37c0 -9 5 -18 15 -30
c11 -14 24 -20 37 -20c25 0 47 23 47 57v7c-2 31 -14 46 -31 46c-12 0 -27 -7 -43 -23v0z" />
</svg>
