<?xml version="1.0" standalone="no"?>
<!DOCTYPE svg PUBLIC "-//W3C//DTD SVG 1.1//EN" "http://www.w3.org/Graphics/SVG/1.1/DTD/svg11.dtd" >
<svg xmlns="http://www.w3.org/2000/svg" xmlns:xlink="http://www.w3.org/1999/xlink" version="1.1" viewBox="-11 0 598 1024">
   <path fill="currentColor"
d="M9 807c-26 -25 6 -58 19 -81c33 -46 62 -95 88 -146c33 -53 63 -110 89 -167c50 -90 97 -183 138 -278c16 -39 35 -76 45 -117c9 -9 21 -13 33 -13c20 0 38 12 39 36c20 97 17 197 24 296c5 84 36 264 36 375c0 55 -7 93 -30 93c-6 0 -13 -2 -21 -8
c-18 -55 -27 -123 -52 -220c-14 -6 -37 -8 -61 -8c-36 0 -77 4 -100 4h-6c-36 0 -62 27 -77 57c-34 55 -62 113 -97 167c-10 12 -27 21 -42 21c-9 0 -18 -4 -25 -11zM420 480c0 -16 1 -31 1 -47c0 -56 -3 -113 -6 -169c-2 -20 -2 -41 -9 -60c-8 -12 -22 5 -27 12
c-4 13 -11 26 -17 38c-52 82 -81 159 -133 234c0 12 20 11 30 13c44 4 89 4 133 4c11 0 27 -2 27 -16c0 -3 1 -6 1 -9zM300 -43c-3 -9 -2 -19 5 -26c6 -11 7 -23 7 -35c2 -17 10 -34 24 -45c7 -5 17 -7 24 -1c9 7 11 18 12 29v9c0 15 -2 30 -8 43c-2 5 -6 10 -11 14
c-9 11 1 9 -11 17c-9 4 -17 8 -27 9c-8 0 -13 -8 -15 -14zM477 -44c-4 -7 -2 -18 5 -29c6 -10 13 -31 16 -48c5 -28 6 -31 24 -32s19 0 21 20c0 5 1 9 1 14c0 34 -10 68 -23 77c-9 6 -18 9 -25 9c-8 0 -15 -4 -19 -11v0z" />
</svg>
