<?xml version="1.0" standalone="no"?>
<!DOCTYPE svg PUBLIC "-//W3C//DTD SVG 1.1//EN" "http://www.w3.org/Graphics/SVG/1.1/DTD/svg11.dtd" >
<svg xmlns="http://www.w3.org/2000/svg" xmlns:xlink="http://www.w3.org/1999/xlink" version="1.1" viewBox="-10 0 608 1024">
   <path fill="currentColor"
d="M243.184 1012.78c-34.915 -39.5625 -8.14746 -92.6465 10.373 -133.19c21.3213 -73.0693 2.40234 -123.859 -79.7207 -147.867c-34.7441 -9.67285 -64.4346 -30.792 -86.8203 -59.9102c-47.0488 -58.6777 -51.4404 -139.792 -32.4648 -210.086
c6.74316 -40.2051 22.3008 -77.6748 36.1182 -115.617c47.9482 -118.905 115.353 -252.57 206.812 -328.029c42.5078 -32.0645 138.673 -30.2949 149.854 -24.5439c0 0 11.6328 13.1045 11.6328 15.668c0 6.46387 -10.873 3.73926 -18.2852 17.8701
c-39.248 19.7627 -98.043 40.7402 -124.85 72.6211c-100.58 107.361 -157.259 244.109 -203.59 371.183c-7.29004 42.0137 -13.8848 87.8057 0.697266 128.81c30.415 50.5117 86.1387 85.0693 145.858 84.3945c98.8447 2.96973 176.011 -32.4746 239.374 -97.915
c21.1943 -27.4307 42.7969 -4.01172 67.9521 8.77441c-7.98633 38.832 -44.1699 66.8057 -73.9766 90.875c-39.2939 27.2686 -81.3711 57.4014 -130.802 59.5898c-38.6504 16.6592 -33.1914 68.5098 -41.7676 103.162c-1.41309 36.3154 -20.6807 75.1875 -12.3115 109.911
c41.957 6.25977 62.6514 -44.9492 101.463 -48.625c56.7812 -4.55273 32.2549 67.1387 -2.31934 82.0625c-48.54 21.6475 -125.542 65.7266 -163.229 20.8633z" />
</svg>
