<?xml version="1.0" standalone="no"?>
<!DOCTYPE svg PUBLIC "-//W3C//DTD SVG 1.1//EN" "http://www.w3.org/Graphics/SVG/1.1/DTD/svg11.dtd" >
<svg xmlns="http://www.w3.org/2000/svg" xmlns:xlink="http://www.w3.org/1999/xlink" version="1.1" viewBox="-10 0 506 1024">
   <path fill="currentColor"
d="M108 817c-33 -22 -51 -60 -69 -93c-34 -63 -24 -138 -15 -207c8 -63 27 -123 46 -183c25 -87 46 -180 102 -254c16 -22 43 -38 70 -38c9 0 18 2 27 6c26 13 51 33 65 59c31 1 74 -5 82 37c7 23 9 47 9 71c0 44 -8 88 -16 131c-27 118 -65 234 -121 342
c-30 53 -64 113 -126 133c-6 3 -13 4 -19 4c-12 0 -24 -4 -35 -8zM205 678c57 -60 88 -139 110 -218c19 -69 38 -138 47 -209c4 -24 -15 -13 -14 4c-8 20 -13 44 -29 59c-19 -7 -27 -31 -28 -50c1 -5 1 -9 1 -14c0 -26 -9 -52 -17 -77c-4 -16 -19 -33 -35 -33
c-6 0 -11 2 -17 7c-33 28 -49 70 -66 108c-42 105 -65 218 -76 330c-1 10 -2 19 -2 29c0 27 6 54 22 77c9 13 23 28 39 28c4 0 8 -1 13 -3c20 -9 37 -22 52 -38zM394 -1c-4 -8 -3 -19 5 -31c7 -10 14 -33 17 -51c5 -30 8 -34 27 -35c20 -1 21 0 23 22c1 6 1 11 1 17
c0 35 -10 70 -25 79c-11 7 -21 10 -29 10s-15 -3 -19 -11v0zM228 -15c-8 -3 -12 -14 -12 -29c0 -28 14 -69 36 -90c9 -9 17 -9 28 -3c8 5 12 9 12 21c0 10 -3 26 -9 53c-9 39 -16 53 -33 53c-6 0 -13 -2 -22 -5v0z" />
</svg>
