<?xml version="1.0" standalone="no"?>
<!DOCTYPE svg PUBLIC "-//W3C//DTD SVG 1.1//EN" "http://www.w3.org/Graphics/SVG/1.1/DTD/svg11.dtd" >
<svg xmlns="http://www.w3.org/2000/svg" xmlns:xlink="http://www.w3.org/1999/xlink" version="1.1" viewBox="-10 0 592 1024">
   <path fill="currentColor"
d="M90 813c-154 -177 -73 -482 -17 -675c2 -19 17 -66 35 -66c5 0 11 5 17 15c10 20 18 11 18 15c0 3 -3 11 -12 35c-22 76 -47 212 -61 289c-5 48 -10 96 -10 145c0 34 3 69 8 103c7 29 29 69 61 69c3 0 6 0 9 -1c39 -22 57 -66 79 -103c44 -84 82 -172 126 -256
c12 -48 56 -67 56 -149c0 -12 -1 -24 -3 -39c5 -54 2 -196 49 -209c16 22 9 62 14 92c2 50 3 100 3 150v84c0 98 1 195 15 292c8 52 27 102 57 146c8 8 11 20 11 32c0 22 -11 45 -31 45c-3 0 -6 0 -9 -1c-36 -29 -55 -73 -77 -113c-41 -90 -31 -192 -41 -288
c-3 -7 -6 -11 -9 -11c-11 0 -20 48 -24 61c-33 99 -79 195 -137 282c-22 32 -57 64 -97 64c-6 0 -13 0 -19 -2c-1 -3 -11 -2 -11 -6zM411 -99c-2 -3 -3 -6 -3 -10c0 -6 3 -14 8 -22c7 -11 15 -36 18 -55c5 -32 8 -35 28 -37c4 0 6 -1 9 -1c12 0 13 5 15 24c0 5 1 11 1 16
c0 38 -12 76 -27 87c-10 7 -20 11 -28 11c-9 0 -16 -5 -21 -13v0zM127 -82c-8 -3 -12 -14 -12 -29c0 -29 15 -72 36 -93c9 -9 16 -11 27 -4c8 5 12 10 12 22c0 11 -3 28 -9 55c-9 40 -16 54 -32 54c-6 0 -13 -2 -22 -5v0z" />
</svg>
