<?xml version="1.0" standalone="no"?>
<!DOCTYPE svg PUBLIC "-//W3C//DTD SVG 1.1//EN" "http://www.w3.org/Graphics/SVG/1.1/DTD/svg11.dtd" >
<svg xmlns="http://www.w3.org/2000/svg" xmlns:xlink="http://www.w3.org/1999/xlink" version="1.1" viewBox="-10 0 608 1024">
   <path fill="currentColor"
d="M31 1108c-13 -61 -4 -124 2 -186c14 -92 25 -186 49 -277c14 -64 69 -216 98 -276c85 -148 160 -185 266 -185h4c56 15 91 56 107 146c-1 68 -4 111 -36 189c44 80 44 78 45 140c0 36 -11 72 -39 97c-33 34 -84 54 -136 54c-28 0 -57 -6 -82 -19c-14 -11 -26 -28 -26 -42
c0 -11 7 -20 25 -23h3c34 0 69 11 103 11c12 0 24 -1 36 -5c31 -12 51 -44 51 -76c0 -10 -2 -20 -6 -29c-23 -63 -43 -57 -80 -77c-19 -10 -30 -25 -30 -39s11 -26 34 -26h3c48 3 12 2 48 3c2 -22 13 -89 13 -144c0 -34 -5 -64 -18 -74c-21 -14 -40 -21 -59 -21
c-16 0 -33 5 -52 17c-134 137 -179 313 -223 470c-12 58 -30 118 -34 177c32 -123 59 -198 112 -308l25 -30c18 23 16 25 19 50c-34 138 -88 314 -145 446c-5 16 -33 52 -56 52c-8 0 -16 -4 -21 -15z" />
</svg>
