<?xml version="1.0" standalone="no"?>
<!DOCTYPE svg PUBLIC "-//W3C//DTD SVG 1.1//EN" "http://www.w3.org/Graphics/SVG/1.1/DTD/svg11.dtd" >
<svg xmlns="http://www.w3.org/2000/svg" xmlns:xlink="http://www.w3.org/1999/xlink" version="1.1" viewBox="-10 0 466 1024">
   <path fill="currentColor"
d="M356 921c-25 -38 -37 -84 -38 -130c3 -25 -6 -51 -21 -70c-22 2 -35 28 -59 43c-45 27 -95 47 -148 47c-6 0 -12 -1 -18 -1c-25 -1 -48 -20 -54 -45c-5 -20 -8 -40 -8 -60c0 -47 14 -93 36 -134c13 -25 27 -46 36 -63c25 -40 62 -74 103 -98c23 -11 49 -19 74 -19
c18 0 37 4 53 14c31 24 41 63 56 97c16 19 15 41 16 64v32c0 32 -1 64 -1 96c0 50 3 99 17 147c6 26 26 44 40 66c4 6 6 10 6 15c0 18 -27 28 -44 28h-2c-19 0 -33 -15 -44 -29zM148 734c55 -30 101 -74 145 -118c12 -10 22 -25 22 -40c0 -8 -3 -16 -10 -24
c-2 -4 -3 -8 -3 -12c0 -16 17 -28 17 -45c0 -2 0 -4 -1 -6c-2 -27 -27 -48 -53 -48c-5 0 -9 1 -14 2c-52 13 -89 57 -117 101c-29 50 -53 105 -57 163c-1 2 -1 4 -1 7c0 18 13 41 30 41c4 0 8 -1 12 -4c11 -4 19 -12 30 -17v0zM190 330c-3 -9 -2 -20 5 -28
c7 -12 8 -26 8 -39c2 -18 9 -37 24 -49c7 -6 18 -8 25 -2c10 8 11 21 12 33v9c0 16 -2 33 -8 48c-2 6 -6 11 -11 15c-9 12 2 10 -11 19c-9 4 -18 9 -28 10c-8 -1 -14 -9 -16 -16zM321 349c-8 -3 -12 -15 -12 -30c0 -30 14 -73 35 -93c9 -9 17 -10 28 -3c8 5 12 10 12 22
c0 11 -3 27 -9 54c-9 40 -16 55 -33 55c-6 0 -12 -2 -21 -5v0z" />
</svg>
