<?xml version="1.0" standalone="no"?>
<!DOCTYPE svg PUBLIC "-//W3C//DTD SVG 1.1//EN" "http://www.w3.org/Graphics/SVG/1.1/DTD/svg11.dtd" >
<svg xmlns="http://www.w3.org/2000/svg" xmlns:xlink="http://www.w3.org/1999/xlink" version="1.1" viewBox="-10 0 485 1024">
   <path fill="currentColor"
d="M117 317c-9 -4 -14 -13 -14 -22c0 -4 1 -8 3 -12c7 -18 26 -29 31 -48c17 -30 41 -54 58 -83c18 -28 32 -59 59 -81c8 -7 18 -11 28 -11c7 0 13 2 19 7c12 11 17 26 18 42c5 24 19 46 23 71c6 25 26 46 26 73v2c0 15 -12 29 -28 29h-4c-20 -2 -36 -20 -38 -40
c-7 -29 -14 -59 -27 -87h-2c-9 0 -16 19 -22 25c-25 39 -45 81 -73 118c-8 11 -21 23 -35 23c-3 0 -5 0 -8 -1c-5 -1 -10 -3 -14 -5zM174 793c-51 -12 -101 -36 -135 -77c-10 -14 -13 -30 -13 -46c0 -24 8 -49 19 -70c20 -35 43 -69 65 -104c27 -33 61 -61 98 -83
c6 -5 13 -7 20 -7c13 0 28 7 38 15c18 13 34 31 34 54v2v15c0 44 -9 89 -40 121c-31 35 -74 51 -113 74c-8 4 -10 8 -10 12c0 11 22 20 34 22c23 9 47 12 71 12s48 -3 72 -6c27 -5 57 -8 80 -24c6 -10 18 -19 30 -19c6 0 12 2 17 8c7 9 10 21 10 33s-3 25 -11 34
c-27 28 -68 35 -105 41c-21 3 -43 4 -64 4c-32 0 -65 -3 -97 -11zM158 606c47 -26 68 -49 80 -87c3 -9 4 -17 4 -22c0 -7 -3 -11 -8 -11c-6 0 -16 5 -29 15c-33 25 -46 38 -71 76c-18 26 -27 42 -27 48c0 2 1 4 3 4c6 0 22 -8 48 -23z" />
</svg>
