<?xml version="1.0" standalone="no"?>
<!DOCTYPE svg PUBLIC "-//W3C//DTD SVG 1.1//EN" "http://www.w3.org/Graphics/SVG/1.1/DTD/svg11.dtd" >
<svg xmlns="http://www.w3.org/2000/svg" xmlns:xlink="http://www.w3.org/1999/xlink" version="1.1" viewBox="-10 0 559 1024">
   <path fill="currentColor"
d="M387 391c-20 -3 -37 -18 -49 -35c-24 -16 -43 -38 -68 -53c-12 -8 -29 -3 -36 10c-11 16 -17 39 -38 43h-5c-18 0 -35 -18 -35 -38v-2v-3c0 -19 18 -26 30 -35c15 -14 19 -39 38 -49c5 -3 11 -4 16 -4c13 0 25 7 36 14c34 22 60 55 90 82c10 9 22 15 35 15
c6 0 13 -2 19 -5c29 -15 46 -45 67 -69c6 -12 26 -24 29 -3c2 6 2 13 2 20c0 14 -3 28 -13 38c-10 15 -16 34 -30 47c-16 18 -39 29 -62 29h-3c-8 0 -15 -1 -23 -2zM50 831c-8 -8 -13 -21 -13 -33c0 -16 7 -31 23 -37c24 -9 24 -37 26 -58c11 -70 35 -138 41 -209
c3 -22 3 -46 15 -66c9 -8 20 -11 32 -11c14 0 28 4 39 12c7 8 10 18 10 28c0 13 -5 27 -7 40c-4 25 -16 48 -23 73c35 -33 77 -58 113 -90c29 -19 64 -31 99 -31c12 0 23 2 35 5c19 7 26 27 26 46c0 7 -1 13 -2 19c-5 64 -15 127 -31 189c-1 13 -7 28 -7 41c0 8 2 16 9 23
c7 6 11 15 11 23c0 9 -6 17 -19 17h-1c-14 5 -30 8 -45 8s-30 -3 -44 -9c-9 -4 -12 -11 -12 -19c0 -12 8 -26 17 -34c18 -13 14 -36 20 -55c7 -33 14 -66 22 -98c3 -16 6 -32 6 -48c0 -7 -1 -14 -2 -21c-4 -7 -9 -10 -15 -10c-14 0 -30 15 -40 23c-35 26 -68 55 -102 82
c-38 31 -53 80 -62 126c-2 24 -13 45 -28 64c-16 13 -37 19 -58 19c-7 0 -14 0 -21 -2c-4 -1 -9 -4 -12 -7v0z" />
</svg>
