<?xml version="1.0" standalone="no"?>
<!DOCTYPE svg PUBLIC "-//W3C//DTD SVG 1.1//EN" "http://www.w3.org/Graphics/SVG/1.1/DTD/svg11.dtd" >
<svg xmlns="http://www.w3.org/2000/svg" xmlns:xlink="http://www.w3.org/1999/xlink" version="1.1" viewBox="-10 0 485 1024">
   <path fill="currentColor"
d="M408 801c-24 -39 -37 -84 -51 -127l-24 -76c-39 63 -74 135 -139 176c-33 20 -76 33 -113 17c-27 -19 -37 -54 -51 -83c-18 -41 -27 -85 -27 -129c0 -33 5 -66 13 -98c17 -68 41 -136 71 -199c11 -19 26 -73 35 -73c2 0 4 4 5 12c2 10 2 16 2 22v12c0 7 1 13 9 23
c2 6 2 13 2 19c0 25 -11 49 -18 73c-19 47 -36 98 -36 150c0 8 0 17 1 25c4 41 8 84 30 120c6 6 13 9 21 9c24 0 52 -21 52 -21c76 -76 93 -134 121 -210c17 -40 19 -90 51 -122c4 -3 8 -4 12 -4c19 0 29 33 32 50c11 56 6 114 15 171c6 70 31 137 35 208
c-2 23 -12 54 -37 60c-4 0 -8 -2 -11 -5zM139 127c-3 -8 -2 -18 4 -25c6 -10 8 -22 8 -34c1 -16 9 -33 23 -43c7 -5 17 -7 24 -2c9 7 10 19 11 29v8c0 14 -2 29 -7 42c-2 5 -6 9 -11 12c-9 11 1 10 -11 18c-9 4 -17 7 -27 8c-8 0 -12 -7 -14 -13zM397 139
c-7 -3 -11 -12 -11 -25c0 -25 13 -62 31 -80c8 -8 15 -9 24 -3c7 4 10 8 10 18c0 9 -3 24 -8 47c-7 34 -14 47 -28 47c-5 0 -11 -1 -18 -4v0z" />
</svg>
