<?xml version="1.0" standalone="no"?>
<!DOCTYPE svg PUBLIC "-//W3C//DTD SVG 1.1//EN" "http://www.w3.org/Graphics/SVG/1.1/DTD/svg11.dtd" >
<svg xmlns="http://www.w3.org/2000/svg" xmlns:xlink="http://www.w3.org/1999/xlink" version="1.1" viewBox="-10 0 326 1024">
   <path fill="currentColor"
d="M145 907c-1 -2 -2 -6 -2 -10c0 -13 5 -34 15 -54c13 -27 19 -62 23 -77c11 -48 5 -58 44 -59c8 -1 46 -5 57 -5h3c11 1 15 4 15 13s-4 25 -9 54c-5 47 -70 134 -78 141c-10 9 -22 12 -34 12c-14 0 -28 -5 -34 -15v0zM15 907c-1 -2 -2 -5 -2 -9c0 -13 6 -34 16 -55
c13 -27 18 -62 22 -77c11 -48 6 -58 45 -59c8 -1 46 -5 57 -5h3c11 1 15 4 15 13s-4 25 -9 54c-5 47 -70 134 -78 141c-10 9 -23 12 -35 12c-15 0 -28 -5 -34 -15v0z" />
</svg>
