<?xml version="1.0" standalone="no"?>
<!DOCTYPE svg PUBLIC "-//W3C//DTD SVG 1.1//EN" "http://www.w3.org/Graphics/SVG/1.1/DTD/svg11.dtd" >
<svg xmlns="http://www.w3.org/2000/svg" xmlns:xlink="http://www.w3.org/1999/xlink" version="1.1" viewBox="-10 0 329 1024">
   <path fill="currentColor"
d="M149 82c0 12 4 26 -5 37c-13 16 -37 21 -57 21c-14 0 -29 -3 -43 -6c-11 -4 -10 -18 -10 -28c0 -20 1 -38 4 -58c8 -35 25 -68 44 -99c8 -12 15 -25 27 -34c6 -5 14 -7 21 -7s13 2 18 6c9 7 14 15 15 26c1 5 2 11 2 16c0 6 -1 12 -3 18c-9 37 -13 73 -13 108zM273 81
c0 6 1 11 1 17s-1 13 -6 19c-13 16 -36 21 -56 21c-14 0 -29 -3 -43 -6c-11 -4 -12 -17 -12 -27c0 -20 1 -38 4 -58c8 -35 26 -68 45 -99c8 -12 15 -25 27 -34c6 -5 13 -7 20 -7c6 0 13 2 18 6c9 7 14 15 15 26c1 5 2 10 2 15c0 6 -1 12 -3 18c-9 37 -12 74 -12 109z" />
</svg>
