<?xml version="1.0" standalone="no"?>
<!DOCTYPE svg PUBLIC "-//W3C//DTD SVG 1.1//EN" "http://www.w3.org/Graphics/SVG/1.1/DTD/svg11.dtd" >
<svg xmlns="http://www.w3.org/2000/svg" xmlns:xlink="http://www.w3.org/1999/xlink" version="1.1" viewBox="-10 0 310 1024">
   <path fill="currentColor"
d="M131 532c-14 -12 -23 -58 -23 -93c0 -16 2 -29 6 -36c8 -13 19 -65 26 -122c2 -18 10 -65 16 -105c4 -28 6 -55 6 -71c0 -7 0 -13 -1 -15c-2 -3 -2 -7 -2 -11c0 -22 20 -52 38 -52c22 0 33 20 33 71c0 27 -3 62 -9 108c-8 66 -18 162 -21 215c-5 89 -15 129 -37 129
c-9 0 -19 -6 -32 -18zM124 811c-27 -13 -40 -41 -40 -68c0 -28 14 -55 42 -64c6 -2 11 -3 16 -3c11 0 19 5 26 17c10 16 14 34 14 52c0 36 -18 70 -43 70c-5 0 -10 -2 -15 -4v0z" />
</svg>
