<?xml version="1.0" standalone="no"?>
<!DOCTYPE svg PUBLIC "-//W3C//DTD SVG 1.1//EN" "http://www.w3.org/Graphics/SVG/1.1/DTD/svg11.dtd" >
<svg xmlns="http://www.w3.org/2000/svg" xmlns:xlink="http://www.w3.org/1999/xlink" version="1.1" viewBox="-10 0 485 1024">
   <path fill="currentColor"
d="M150 186c-11 -4 -16 -20 -16 -41c0 -42 20 -105 49 -135c7 -7 13 -11 20 -11c5 0 11 2 17 6c12 7 17 14 17 31c0 15 -4 39 -13 78c-13 57 -22 79 -45 79c-8 0 -17 -2 -29 -7v0zM256 183c-1 -2 -1 -4 -1 -7c0 -12 6 -32 15 -51c12 -24 23 -56 23 -70c0 -26 24 -46 51 -46
c4 0 9 1 13 2c13 3 18 9 18 30c0 12 -2 29 -5 54c-6 43 -16 83 -24 90c-10 8 -28 11 -46 11c-20 0 -39 -4 -44 -13v0z" />
</svg>
