<?xml version="1.0" standalone="no"?>
<!DOCTYPE svg PUBLIC "-//W3C//DTD SVG 1.1//EN" "http://www.w3.org/Graphics/SVG/1.1/DTD/svg11.dtd" >
<svg xmlns="http://www.w3.org/2000/svg" xmlns:xlink="http://www.w3.org/1999/xlink" version="1.1" viewBox="-10 0 642 1024">
   <path fill="currentColor"
d="M339 24c9 1 21 20 33 20c1 0 3 -1 4 -1c0 3 1 6 1 9c0 26 -14 51 -20 76c-18 49 -36 97 -54 146h160c25 -76 52 -152 87 -224c2 -4 4 -6 7 -6c9 0 21 19 32 19c1 0 3 0 4 -1c0 3 1 7 1 10c0 26 -13 51 -19 75l-48 129c26 1 54 1 77 11c7 4 10 10 10 16c0 9 -7 20 -12 28
c-5 14 -20 22 -37 22h-6c-20 0 -40 -1 -60 -2c-16 42 -32 84 -48 125c12 1 23 1 34 1c27 2 57 1 81 12c7 4 10 10 10 15c0 10 -7 20 -12 28c-5 15 -21 23 -40 23h-3c-26 -1 -52 -2 -79 -2h-19c-13 48 -32 91 -45 138c-18 47 -34 95 -52 142c-4 8 -17 29 -24 13
c-14 -10 -33 -23 -33 -46c0 -4 1 -8 2 -13c14 -52 46 -94 64 -144c9 -28 19 -56 30 -83c-13 3 -27 4 -41 4c-24 0 -49 -3 -73 -4h-18h-36c-12 38 -26 74 -37 111c-17 48 -34 96 -52 143c-4 8 -17 29 -23 12c-14 -9 -34 -22 -34 -45c0 -4 1 -8 2 -13c14 -52 46 -94 65 -144
c6 -22 13 -43 21 -64c-17 0 -33 -2 -50 -4c-18 -2 -34 -13 -34 -28c0 -2 1 -3 1 -5v-2c0 -13 10 -27 27 -32c28 -8 58 -10 88 -11c3 -11 7 -21 10 -32l30 -87c-28 0 -56 -1 -84 -5c-18 -2 -34 -13 -34 -28c0 -2 1 -3 1 -5v-2c0 -13 10 -27 27 -32c37 -10 78 -10 117 -12
c28 -83 56 -166 94 -244c2 -5 5 -7 7 -7zM437 353c-10 1 -20 2 -30 4c-15 4 -30 5 -45 5c-24 0 -49 -3 -73 -4h-18c-15 39 -30 79 -45 118h113h57c1 -4 2 -7 3 -10c13 -38 26 -75 38 -113z" />
</svg>
