<?xml version="1.0" standalone="no"?>
<!DOCTYPE svg PUBLIC "-//W3C//DTD SVG 1.1//EN" "http://www.w3.org/Graphics/SVG/1.1/DTD/svg11.dtd" >
<svg xmlns="http://www.w3.org/2000/svg" xmlns:xlink="http://www.w3.org/1999/xlink" version="1.1" viewBox="-10 0 645 1024">
   <path fill="currentColor"
d="M128 863c-3 -9 -4 -18 -4 -26c0 -56 56 -107 67 -163c-11 -18 -28 -20 -36 -20h-4c-14 41 -42 112 -59 143c-9 18 -27 31 -44 31c-12 0 -23 -6 -29 -22c13 -79 44 -124 66 -173c-15 -26 -76 -83 -76 -116c0 -2 1 -3 1 -5c8 -12 17 -17 27 -17c22 0 46 26 54 48
c4 3 8 4 11 4c22 0 30 -55 35 -74c14 -30 15 -66 37 -95c3 -8 4 -15 4 -22c0 -32 -24 -60 -24 -93v-2v-4c0 -40 48 -55 75 -74c26 -43 50 -89 64 -138v-5c0 -22 22 -38 43 -38c12 0 23 5 29 16c2 5 3 9 3 14c0 30 -40 53 -41 89c0 7 1 10 4 10c9 0 31 -39 35 -48
c4 -21 27 -53 48 -53c8 0 15 4 21 14c0 5 1 9 1 13c0 21 -6 38 -29 67c24 5 61 8 94 8c19 0 37 -1 51 -3c4 -1 8 -2 12 -2c18 0 30 12 30 24c0 9 -7 18 -25 20c-45 13 -92 22 -139 22c-13 0 -25 -1 -38 -2c-26 20 -26 64 -41 94c-5 16 -14 38 -14 55c0 15 7 27 28 30
c33 24 69 48 87 85c5 14 7 28 7 42c0 69 -51 139 -121 152c-31 14 -84 5 -92 46c-10 41 -20 82 -42 119c-6 27 -21 58 -48 58c-7 0 -14 -2 -22 -6l-6 -3v0zM345 597c18 -8 32 -24 43 -40c6 -10 11 -21 13 -32c1 -7 4 -13 6 -20v-2c0 -12 -8 -24 -16 -32
c-14 -14 -30 -27 -48 -36c-7 -5 -14 2 -16 9c-11 25 -18 52 -24 79c-5 24 -11 48 -11 72c-1 7 4 16 12 15c15 -1 27 -8 41 -13zM215 555c3 -11 15 -31 16 -45s11 -33 14 -52c1 -10 2 -17 2 -23c0 -17 -5 -22 -13 -22c-6 0 -19 0 -41 106c-4 20 -6 30 -6 36s2 8 7 12
c14 11 15 10 21 -12v0zM280 289c8 -16 17 -54 17 -69c0 -4 -1 -6 -2 -6c-13 0 -44 62 -44 84c0 3 0 6 2 7c11 7 18 2 27 -16z" />
</svg>
