<?xml version="1.0" standalone="no"?>
<!DOCTYPE svg PUBLIC "-//W3C//DTD SVG 1.1//EN" "http://www.w3.org/Graphics/SVG/1.1/DTD/svg11.dtd" >
<svg xmlns="http://www.w3.org/2000/svg" xmlns:xlink="http://www.w3.org/1999/xlink" version="1.1" viewBox="-10 0 669 1024">
   <path fill="currentColor"
d="M63 772c-5 -7 -7 -13 -7 -18c0 -21 35 -30 45 -52c36 -42 69 -85 95 -133c30 -56 65 -111 85 -171c32 -58 72 -111 99 -172c38 -74 78 -148 124 -217c3 -2 6 -3 9 -3c15 0 28 23 28 43c0 9 -3 17 -9 22c-28 22 -37 54 -53 84c-80 144 -158 289 -233 435
c-18 34 -35 69 -57 101c-17 41 -31 90 -75 110c-5 2 -10 3 -14 3c-17 0 -31 -14 -37 -32zM81 370c-41 -9 -62 -38 -62 -93v-2c0 -62 39 -170 62 -170c9 0 21 -8 25 -18c6 -13 28 -18 76 -18c63 0 69 3 89 39c16 30 27 67 27 98c0 5 0 9 -1 14c-1 7 -27 46 -57 86
c-40 54 -61 72 -99 72c-16 0 -35 -3 -60 -8zM220 167c0 -39 -13 -59 -31 -59c-21 0 -50 26 -78 76c-20 36 -30 60 -30 80c0 13 4 24 11 35c10 16 16 25 25 25c10 0 24 -13 51 -42c29 -31 52 -82 52 -115v0zM386 782c-40 -22 -78 -55 -86 -102c-1 -6 -2 -12 -2 -18
c0 -41 23 -80 47 -112c16 -23 31 -45 43 -70c22 -13 48 -12 73 -15c19 -1 38 -2 57 -2c33 0 67 2 99 8c24 6 25 32 25 52c-1 49 -20 94 -37 139c-11 24 -21 50 -35 72c-29 37 -71 61 -116 72h-6c-22 0 -42 -14 -62 -24zM512 679c38 -32 56 -68 56 -98c0 -35 -26 -61 -75 -61
c-76 0 -126 63 -126 159c0 32 18 47 45 47s63 -15 100 -47v0z" />
</svg>
