<?xml version="1.0" standalone="no"?>
<!DOCTYPE svg PUBLIC "-//W3C//DTD SVG 1.1//EN" "http://www.w3.org/Graphics/SVG/1.1/DTD/svg11.dtd" >
<svg xmlns="http://www.w3.org/2000/svg" xmlns:xlink="http://www.w3.org/1999/xlink" version="1.1" viewBox="-10 0 645 1024">
   <path fill="currentColor"
d="M368 821c-17 -20 -35 -39 -52 -59c-27 25 -54 57 -94 57c-9 1 -18 1 -27 1c-45 0 -94 -10 -117 -53c-16 -34 -26 -71 -26 -109c0 -11 1 -23 3 -34c32 -63 104 -109 158 -146c8 -16 9 -34 9 -51v-33c0 -7 0 -14 1 -21c6 -89 23 -179 63 -259c34 -60 100 -94 168 -94
c19 0 39 4 57 9c38 6 69 36 73 75c1 8 2 16 2 24c0 72 -36 138 -72 197c-44 69 -97 132 -160 183c-6 9 -8 17 -8 25c0 24 22 45 31 82v2c0 97 60 150 112 180c5 8 7 14 7 18c0 11 -12 16 -13 40c-4 19 -15 26 -28 26c-19 0 -42 -14 -55 -28c-11 -10 -22 -21 -32 -32z
M273 716c15 -16 18 -37 19 -59v-10c0 -26 -4 -52 -16 -75c-5 -10 -15 -19 -26 -19h-3c-15 2 -30 11 -36 25c-13 19 -52 42 -52 42c-24 15 -34 31 -34 58v4c0 16 2 42 17 49c17 8 35 11 53 11c10 0 21 -1 31 -3c17 -4 35 -11 47 -23zM353 383c36 -40 70 -84 102 -127
c13 -17 25 -35 32 -55c9 -23 18 -46 21 -71v-1c0 -15 -18 -16 -25 -27c-6 -9 -15 -18 -26 -18c-3 0 -7 1 -11 3c-28 13 -54 30 -77 52c-22 25 -33 59 -43 91c-12 42 -22 87 -22 131v11c1 12 1 27 13 33h2c12 0 22 -11 31 -19z" />
</svg>
