<?xml version="1.0" standalone="no"?>
<!DOCTYPE svg PUBLIC "-//W3C//DTD SVG 1.1//EN" "http://www.w3.org/Graphics/SVG/1.1/DTD/svg11.dtd" >
<svg xmlns="http://www.w3.org/2000/svg" xmlns:xlink="http://www.w3.org/1999/xlink" version="1.1" viewBox="-10 0 345 1024">
   <path fill="currentColor"
d="M212 787c-28 -14 -53 -31 -56 -37s-20 -19 -38 -29c-44 -25 -62 -60 -76 -144c-4 -28 -7 -49 -7 -69s3 -40 7 -64c30 -164 115 -331 166 -331h3c14 2 21 13 21 29c0 21 -11 50 -33 80c-59 80 -95 195 -95 282c0 26 3 49 10 69c13 38 84 122 103 122c20 0 78 69 78 93
c0 16 -5 24 -17 24c-13 0 -33 -8 -66 -25v0z" />
</svg>
