<?xml version="1.0" standalone="no"?>
<!DOCTYPE svg PUBLIC "-//W3C//DTD SVG 1.1//EN" "http://www.w3.org/Graphics/SVG/1.1/DTD/svg11.dtd" >
<svg xmlns="http://www.w3.org/2000/svg" xmlns:xlink="http://www.w3.org/1999/xlink" version="1.1" viewBox="-10 0 428 1024">
   <path fill="currentColor"
d="M43 789c-24 -9 -26 -33 -26 -56v-17c1 -9 -2 -24 2 -31h2c23 0 36 10 59 10c13 0 30 -4 53 -14c122 -88 192 -223 195 -370c-12 -59 -5 -127 -47 -176c-21 -24 -47 -52 -47 -86v-7c6 -12 16 -17 27 -17c18 0 39 13 50 27c49 57 59 134 72 205c1 15 1 31 1 47
c0 134 -34 281 -108 375c-40 50 -88 102 -153 116c-11 4 -22 6 -33 6c-16 0 -32 -4 -47 -12z" />
</svg>
