<?xml version="1.0" standalone="no"?>
<!DOCTYPE svg PUBLIC "-//W3C//DTD SVG 1.1//EN" "http://www.w3.org/Graphics/SVG/1.1/DTD/svg11.dtd" >
<svg xmlns="http://www.w3.org/2000/svg" xmlns:xlink="http://www.w3.org/1999/xlink" version="1.1" viewBox="-10 0 456 1024">
   <path fill="currentColor"
d="M179 628c-13 -13 -11 -32 -14 -48c-5 -5 -11 -6 -17 -6c-10 0 -22 3 -32 3h-6c-19 0 -39 -1 -56 -10c-3 -4 -4 -9 -4 -13c0 -13 9 -26 16 -36c11 -13 74 -52 92 -53c-8 -25 -36 -42 -59 -67c-16 -17 -38 -30 -47 -52v-6c0 -21 17 -40 38 -40h5c31 4 54 31 66 58
c3 11 12 16 20 16c9 0 17 -6 20 -17c12 -23 11 -51 24 -74c7 -7 17 -10 27 -10c8 0 16 1 23 5c14 8 19 21 19 36c0 8 -1 17 -4 25c-9 19 11 23 22 11c20 -16 41 -33 68 -34h4c14 0 33 5 35 20c-8 20 -26 32 -41 46c-31 27 -91 45 -122 72c18 24 67 55 79 83c2 4 2 9 2 14
c0 14 -6 30 -20 30h-1c-19 -3 -37 -16 -57 -16c-14 8 -13 27 -22 40c-7 14 -20 32 -37 32h-5c-6 -1 -11 -5 -16 -9z" />
</svg>
