<?xml version="1.0" standalone="no"?>
<!DOCTYPE svg PUBLIC "-//W3C//DTD SVG 1.1//EN" "http://www.w3.org/Graphics/SVG/1.1/DTD/svg11.dtd" >
<svg xmlns="http://www.w3.org/2000/svg" xmlns:xlink="http://www.w3.org/1999/xlink" version="1.1" viewBox="-10 0 570 1024">
   <path fill="currentColor"
d="M208 684c-12 -13 -14 -28 -14 -44c0 -10 1 -20 1 -29v-5c1 -21 3 -43 3 -64c0 -14 -1 -28 -4 -42c-4 -7 -9 -9 -15 -9c-14 0 -32 14 -47 14h-4c-8 1 -16 1 -25 1c-23 0 -47 -4 -59 -26c-6 -9 -9 -20 -9 -31c0 -20 9 -40 25 -51c13 4 24 6 34 6c36 0 60 -20 99 -20
c5 0 10 0 16 1c6 -43 8 -117 8 -181v-34c1 -10 4 -12 7 -12c5 0 11 5 17 5c4 0 9 -2 12 -11c4 -5 9 -7 12 -7c13 0 17 32 17 54c0 6 0 11 -1 15c1 22 2 39 2 57c0 15 -1 31 -3 50c-1 4 -1 9 -1 13c0 23 11 47 32 47c2 0 5 0 7 -1c55 -5 114 -47 170 -49c22 0 39 21 39 41
c0 8 -3 16 -9 23c-9 22 -34 28 -56 28c-33 1 -60 21 -91 28c-22 9 -74 16 -96 25c-4 59 -14 123 -24 185c-3 18 -11 38 -23 38c-6 0 -12 -4 -20 -15z" />
</svg>
