<?xml version="1.0" standalone="no"?>
<!DOCTYPE svg PUBLIC "-//W3C//DTD SVG 1.1//EN" "http://www.w3.org/Graphics/SVG/1.1/DTD/svg11.dtd" >
<svg xmlns="http://www.w3.org/2000/svg" xmlns:xlink="http://www.w3.org/1999/xlink" version="1.1" viewBox="-10 0 450 1024">
   <path fill="currentColor"
d="M74 805c-17 -10 -39 -24 -39 -46c0 -4 0 -8 2 -13c17 -52 55 -94 77 -144c22 -62 56 -122 76 -178c59 -139 105 -284 182 -415c3 -5 5 -7 8 -7c8 0 15 17 27 17c2 0 3 0 5 -1c0 3 1 6 1 9c0 26 -19 51 -27 76c-57 132 -104 268 -163 400c-22 48 -41 97 -58 147
c-22 47 -40 95 -62 142c-5 8 -21 30 -29 13z" />
</svg>
