<?xml version="1.0" standalone="no"?>
<!DOCTYPE svg PUBLIC "-//W3C//DTD SVG 1.1//EN" "http://www.w3.org/Graphics/SVG/1.1/DTD/svg11.dtd" >
<svg xmlns="http://www.w3.org/2000/svg" xmlns:xlink="http://www.w3.org/1999/xlink" version="1.1" viewBox="-10 0 588 1024">
   <path fill="currentColor"
d="M136 802c-42 -20 -83 -50 -96 -97c-14 -37 -22 -76 -22 -115c0 -17 2 -34 5 -51c9 -76 17 -153 44 -226c25 -94 68 -185 133 -258c32 -39 83 -55 132 -55c6 0 11 1 17 1h5c34 0 66 17 88 44c38 36 62 85 65 137c-1 4 -1 9 -1 13c0 26 14 45 40 50c2 8 2 17 2 25
c0 30 -8 60 -11 89c-20 134 -59 267 -137 379c-28 39 -67 76 -117 79c-15 2 -30 3 -45 3c-35 0 -70 -5 -102 -18zM280 714c47 -20 66 -72 86 -115c22 -54 65 -159 69 -217c0 -21 -17 -60 -17 -84v-4c-4 -72 -4 -75 -22 -146c-4 -23 -21 -42 -44 -42c-3 0 -6 0 -10 1
c-53 1 -104 35 -126 83c-28 60 -43 125 -65 185c-8 43 -23 83 -26 127c-2 25 -4 51 -4 76c0 27 2 54 8 80c9 26 36 41 58 55c14 8 29 17 45 17c6 0 13 -2 19 -5c10 -3 19 -7 29 -11z" />
</svg>
