<?xml version="1.0" standalone="no"?>
<!DOCTYPE svg PUBLIC "-//W3C//DTD SVG 1.1//EN" "http://www.w3.org/Graphics/SVG/1.1/DTD/svg11.dtd" >
<svg xmlns="http://www.w3.org/2000/svg" xmlns:xlink="http://www.w3.org/1999/xlink" version="1.1" viewBox="-10 0 342 1024">
   <path fill="currentColor"
d="M29 814c-18 -4 -28 -20 -28 -37c0 -12 5 -25 15 -34c8 -8 22 -39 31 -71s39 -136 66 -232s50 -189 50 -207s-2 -25 -10 -25c-5 0 -12 3 -24 8c-15 7 -31 11 -46 11c-34 0 -64 -18 -70 -47c-2 -10 -3 -17 -3 -24c0 -25 16 -36 73 -67c32 -17 72 -45 88 -61
c20 -19 45 -28 69 -28c37 0 70 22 70 59c0 14 -10 53 -22 87c-37 105 -50 152 -142 528c-8 33 -15 81 -15 105c0 31 -9 45 -40 45c-15 0 -36 -4 -62 -10v0z" />
</svg>
