<?xml version="1.0" standalone="no"?>
<!DOCTYPE svg PUBLIC "-//W3C//DTD SVG 1.1//EN" "http://www.w3.org/Graphics/SVG/1.1/DTD/svg11.dtd" >
<svg xmlns="http://www.w3.org/2000/svg" xmlns:xlink="http://www.w3.org/1999/xlink" version="1.1" viewBox="-10 0 723 1024">
   <path fill="currentColor"
d="M96 783c-33 -1 -62 -25 -62 -57c0 -4 1 -9 2 -13c12 -74 53 -140 88 -203c46 -78 87 -161 105 -250c2 -5 3 -9 3 -13c0 -15 -11 -25 -24 -25c-8 0 -17 4 -24 12c-41 30 -67 75 -87 121c-7 16 -18 22 -30 22c-19 0 -39 -17 -41 -41c-3 -10 -4 -19 -4 -29
c0 -51 35 -99 68 -135c33 -34 79 -65 127 -65c12 0 25 2 37 6c28 8 45 35 45 63c0 5 -1 11 -2 16c-9 98 -40 191 -72 284c-10 34 -3 41 -40 99c-10 12 -15 30 -15 46c0 21 9 40 30 48c63 -10 151 -45 202 -76c71 -36 136 -82 203 -126c15 -7 35 -15 53 -15c13 0 24 4 33 14
c2 7 3 15 3 24c0 30 -12 64 -43 68c-28 20 -51 46 -81 63c-52 33 -105 64 -158 96c-75 30 -152 53 -231 69c-9 1 -19 1 -28 1c-19 0 -38 -1 -57 -4z" />
</svg>
