<?xml version="1.0" standalone="no"?>
<!DOCTYPE svg PUBLIC "-//W3C//DTD SVG 1.1//EN" "http://www.w3.org/Graphics/SVG/1.1/DTD/svg11.dtd" >
<svg xmlns="http://www.w3.org/2000/svg" xmlns:xlink="http://www.w3.org/1999/xlink" version="1.1" viewBox="-13 0 505 1024">
   <path fill="currentColor"
d="M76 800c-39 -5 -71 -40 -71 -79v-2c0 -4 -1 -8 -1 -12c0 -49 33 -92 82 -92h2c28 0 19 2 37 24c21 11 94 33 143 33c22 0 39 -4 45 -16c21 -23 30 -41 30 -60c0 -12 -4 -26 -10 -41c-19 -34 -37 -69 -70 -91c-32 -25 -63 -53 -89 -84c-11 -14 -20 -33 -20 -51
c0 -12 4 -25 15 -34c17 -16 43 -18 69 -18h21c25 0 50 -1 68 -16c29 -20 40 -75 40 -116v-14c-9 -12 -22 -16 -36 -16c-20 0 -42 8 -60 9c-58 11 -125 10 -167 54c-17 20 -39 31 -59 31c-18 0 -35 -9 -42 -32c-4 -8 -6 -17 -6 -25c0 -33 29 -63 54 -82
c69 -50 157 -54 239 -59c38 4 97 2 129 27c4 6 9 8 14 8c14 0 31 -15 41 -15c5 0 7 3 7 13v6c-3 49 -23 138 -40 183c-18 45 -43 86 -73 124c-24 15 -32 27 -32 36c0 26 66 37 76 60c19 34 28 71 28 109c0 79 -38 159 -101 207c-51 31 -114 35 -173 39h-14z" />
</svg>
