<?xml version="1.0" standalone="no"?>
<!DOCTYPE svg PUBLIC "-//W3C//DTD SVG 1.1//EN" "http://www.w3.org/Graphics/SVG/1.1/DTD/svg11.dtd" >
<svg xmlns="http://www.w3.org/2000/svg" xmlns:xlink="http://www.w3.org/1999/xlink" version="1.1" viewBox="-10 0 502 1024">
   <path fill="currentColor"
d="M175 803c0 -4 -1 -8 -1 -12c0 -38 19 -74 22 -111c3 -29 22 -53 26 -82c4 -10 8 -28 8 -43s-5 -27 -18 -27c-2 0 -5 0 -8 1c-84 -27 -109 -19 -154 -48c-28 -26 -40 -53 -40 -85c0 -12 2 -24 5 -37c17 -76 42 -150 71 -223c9 -20 23 -55 47 -55c5 0 10 1 15 4
c28 17 45 30 45 50c0 10 -4 21 -12 35c-25 14 -37 40 -71 200c-4 9 -6 16 -6 21c0 16 19 19 55 34c7 5 16 7 24 7c24 0 52 -16 74 -22c29 -18 40 -62 40 -85c20 -44 14 -94 34 -138c6 -10 16 -14 26 -14c18 0 37 13 40 31c2 12 3 25 3 37c0 43 -11 85 -19 126
c-1 13 -12 36 -12 51c0 8 3 14 13 14c2 0 6 0 9 -1c6 -1 13 -2 19 -2c24 0 48 10 63 28v1c0 29 -29 57 -58 65c-29 7 -63 5 -85 27c-26 52 -37 110 -49 167c-5 34 -10 76 -45 93c-9 4 -21 8 -32 8c-12 0 -23 -4 -29 -15z" />
</svg>
