<?xml version="1.0" standalone="no"?>
<!DOCTYPE svg PUBLIC "-//W3C//DTD SVG 1.1//EN" "http://www.w3.org/Graphics/SVG/1.1/DTD/svg11.dtd" >
<svg xmlns="http://www.w3.org/2000/svg" xmlns:xlink="http://www.w3.org/1999/xlink" version="1.1" viewBox="-10 0 567 1024">
   <path fill="currentColor"
d="M65 790c-38 -21 -53 -64 -53 -106c0 -17 2 -34 7 -50c3 -20 15 -45 30 -45c7 0 13 4 21 15c22 23 9 57 25 82c10 8 22 11 34 11c19 0 38 -7 55 -11c17 -7 25 -23 25 -40c0 -14 -5 -30 -14 -40c-31 -41 -76 -71 -99 -118c-18 -34 -31 -72 -31 -111c0 -8 1 -17 2 -25
c22 -61 63 -114 106 -161c27 -29 66 -56 107 -56c6 0 13 1 19 2h13c59 0 116 -23 175 -23h10c26 18 31 56 44 84c1 2 1 4 1 6c0 6 -6 8 -15 8c-12 0 -30 -3 -47 -4c-81 22 -147 33 -229 47c-32 6 -42 25 -70 39c-12 16 -27 52 -27 84c0 12 2 24 8 34c18 51 50 95 86 135
c20 24 29 54 29 84c0 20 -4 40 -13 59c-22 56 -69 113 -134 116h-4c-21 0 -42 -7 -61 -16z" />
</svg>
