<?xml version="1.0" standalone="no"?>
<!DOCTYPE svg PUBLIC "-//W3C//DTD SVG 1.1//EN" "http://www.w3.org/Graphics/SVG/1.1/DTD/svg11.dtd" >
<svg xmlns="http://www.w3.org/2000/svg" xmlns:xlink="http://www.w3.org/1999/xlink" version="1.1" viewBox="-10 0 539 1024">
   <path fill="currentColor"
d="M173 807c-61 -33 -113 -83 -153 -140c-15 -21 -19 -46 -19 -71c0 -27 5 -54 9 -79c27 -122 77 -238 149 -340c26 -37 61 -67 81 -107c12 -27 48 -36 77 -36h9c21 2 28 14 28 29c0 20 -14 45 -29 57c-46 33 -74 83 -106 129c-58 89 -105 188 -119 294c-1 6 -1 13 -1 20
c0 24 4 53 18 60v-4c0 -32 11 -64 33 -89c38 -43 79 -87 132 -110c15 -5 30 -8 46 -8c41 0 83 17 116 40c45 33 72 90 72 146c0 13 -1 26 -4 38c-13 43 -43 78 -57 121c-27 37 -76 47 -118 57c-27 4 -54 8 -81 8c-28 0 -57 -4 -83 -15zM411 710c29 -42 30 -62 40 -112v-7
c0 -25 -11 -70 -20 -90c-23 -12 -50 -17 -77 -17c-44 0 -89 14 -116 39c-25 19 -47 36 -47 67v4c-7 35 -7 17 -27 87c0 44 68 91 118 91c9 0 18 -2 25 -5c28 -13 86 -32 104 -57z" />
</svg>
