<?xml version="1.0" standalone="no"?>
<!DOCTYPE svg PUBLIC "-//W3C//DTD SVG 1.1//EN" "http://www.w3.org/Graphics/SVG/1.1/DTD/svg11.dtd" >
<svg xmlns="http://www.w3.org/2000/svg" xmlns:xlink="http://www.w3.org/1999/xlink" version="1.1" viewBox="-10 0 570 1024">
   <path fill="currentColor"
d="M158 781c30 -103 102 -198 155 -287v-28c-29 -5 -58 -10 -87 -10c-20 0 -39 2 -58 8c-6 2 -11 3 -17 3c-26 0 -53 -16 -53 -43c0 -2 1 -5 1 -7c3 -32 26 -64 61 -64h2c73 -5 146 -14 218 -22c22 -55 50 -109 62 -168c-7 -29 -63 -37 -94 -37c-6 0 -10 1 -14 1
c-78 22 -148 47 -229 54c-22 1 -40 7 -56 7c-14 0 -26 -5 -36 -22c-1 -3 -1 -6 -1 -9c0 -32 47 -41 70 -55c105 -43 215 -89 330 -89c49 0 104 18 129 64c1 7 2 15 2 22c0 32 -12 64 -17 97c-9 40 -19 81 -34 119c11 23 43 37 43 63c0 5 -1 11 -4 17c-1 35 -30 51 -60 51
c-5 0 -9 0 -14 -1h-4c-36 0 -43 40 -53 68c-23 63 -58 124 -82 187c-22 39 -61 67 -75 109c-11 6 -26 10 -41 10c-19 0 -37 -7 -42 -28c-1 -3 -2 -7 -2 -10z" />
</svg>
