<?xml version="1.0" standalone="no"?>
<!DOCTYPE svg PUBLIC "-//W3C//DTD SVG 1.1//EN" "http://www.w3.org/Graphics/SVG/1.1/DTD/svg11.dtd" >
<svg xmlns="http://www.w3.org/2000/svg" xmlns:xlink="http://www.w3.org/1999/xlink" version="1.1" viewBox="-10 0 528 1024">
   <path fill="currentColor"
d="M111 825c-59 -13 -97 -69 -103 -126c-3 -15 -4 -31 -4 -46c0 -48 13 -96 39 -137c20 -39 49 -72 67 -112c2 -6 2 -13 2 -19c0 -33 -18 -66 -19 -100c-1 -9 -2 -19 -2 -28c0 -72 37 -141 93 -187c60 -51 138 -94 219 -94c9 0 18 1 27 2c28 5 63 15 76 43c1 7 2 15 2 22
c0 52 -27 102 -49 149c-24 45 -49 57 -59 107c-17 37 -62 85 -99 93c-29 13 -70 25 -72 63c1 47 33 87 33 134c1 17 2 35 2 52c0 49 -6 99 -23 146c-15 25 -43 52 -73 52c-7 0 -15 -2 -22 -5c-12 -3 -23 -6 -35 -9zM285 294c40 -57 55 -91 66 -143c6 -30 9 -52 9 -69
c0 -27 -8 -39 -24 -39h-1c-47 1 -129 139 -140 235c-2 16 -3 30 -3 42c0 31 7 46 19 46c15 0 40 -24 74 -72v0zM193 620c-5 -110 -17 -160 -38 -160c-8 0 -17 7 -28 20c-41 49 -61 97 -61 146c0 13 1 26 4 39c17 80 34 100 87 100c30 0 39 -4 39 -62c0 -20 -1 -47 -3 -83z
" />
</svg>
