<?xml version="1.0" standalone="no"?>
<!DOCTYPE svg PUBLIC "-//W3C//DTD SVG 1.1//EN" "http://www.w3.org/Graphics/SVG/1.1/DTD/svg11.dtd" >
<svg xmlns="http://www.w3.org/2000/svg" xmlns:xlink="http://www.w3.org/1999/xlink" version="1.1" viewBox="-10 0 484 1024">
   <path fill="currentColor"
d="M22 713c0 -33 -16 -61 -21 -91c11 -35 48 -52 83 -52c8 0 15 0 22 2c11 6 15 16 15 26c0 19 -13 41 -13 59v1c9 32 41 51 68 66c9 4 18 6 27 6c29 0 56 -21 71 -47c51 -63 56 -138 75 -207c9 -40 23 -80 26 -121c-4 -8 -8 -11 -12 -11c-14 0 -25 39 -37 47
c-24 17 -52 24 -80 24c-27 0 -54 -6 -79 -15c-46 -17 -87 -63 -87 -114c0 -5 0 -10 1 -15c6 -80 64 -144 120 -196c40 -33 84 -68 138 -70c62 0 120 55 120 117v2v28c0 93 -8 185 -23 277c-27 110 -52 228 -112 316c-29 40 -73 75 -124 75c-4 0 -9 0 -14 -1
c-67 -5 -140 -55 -164 -106zM298 284c23 -26 55 -75 70 -110c11 -26 17 -47 17 -63c0 -31 -20 -45 -61 -45c-45 0 -126 83 -162 167c-9 21 -14 34 -14 44c0 11 5 18 15 29c14 16 31 24 50 24c27 0 58 -16 85 -46v0z" />
</svg>
