<?xml version="1.0" standalone="no"?>
<!DOCTYPE svg PUBLIC "-//W3C//DTD SVG 1.1//EN" "http://www.w3.org/Graphics/SVG/1.1/DTD/svg11.dtd" >
<svg xmlns="http://www.w3.org/2000/svg" xmlns:xlink="http://www.w3.org/1999/xlink" version="1.1" viewBox="-10 0 330 1024">
   <path fill="currentColor"
d="M121 698c-7 -8 -10 -16 -10 -25c0 -3 0 -7 1 -10c6 -30 16 -39 41 -39c19 0 25 4 30 21c4 12 6 19 6 25c0 8 -4 13 -13 26c-9 11 -18 18 -28 18c-9 0 -18 -5 -27 -16v0zM125 418c-7 -8 -10 -16 -10 -25c0 -3 0 -6 1 -9c6 -30 16 -40 41 -40c19 0 25 4 30 21
c4 12 6 19 6 25c0 8 -4 13 -13 26c-9 11 -18 18 -28 18c-9 0 -18 -5 -27 -16v0z" />
</svg>
