<?xml version="1.0" standalone="no"?>
<!DOCTYPE svg PUBLIC "-//W3C//DTD SVG 1.1//EN" "http://www.w3.org/Graphics/SVG/1.1/DTD/svg11.dtd" >
<svg xmlns="http://www.w3.org/2000/svg" xmlns:xlink="http://www.w3.org/1999/xlink" version="1.1" viewBox="-10 0 296 1024">
   <path fill="currentColor"
d="M34 973c-6 -13 -9 -25 -9 -36c0 -21 10 -40 30 -66c16 -22 40 -72 53 -113c20 -61 34 -87 50 -87c5 0 11 3 17 8c8 7 12 19 12 37c0 35 -16 92 -48 171c-37 93 -43 101 -68 104h-9c-14 0 -22 -4 -28 -18zM140 468c-9 -9 -13 -20 -13 -31c0 -3 0 -6 1 -9
c8 -35 20 -46 51 -46c24 0 31 4 38 24c5 14 7 23 7 30c0 10 -5 16 -16 30c-11 13 -23 20 -35 20c-11 0 -22 -6 -33 -18v0z" />
</svg>
