<?xml version="1.0" standalone="no"?>
<!DOCTYPE svg PUBLIC "-//W3C//DTD SVG 1.1//EN" "http://www.w3.org/Graphics/SVG/1.1/DTD/svg11.dtd" >
<svg xmlns="http://www.w3.org/2000/svg" xmlns:xlink="http://www.w3.org/1999/xlink" version="1.1" viewBox="-10 0 441 1024">
   <path fill="currentColor"
d="M85 772c-2 -5 -2 -11 -2 -16c0 -18 8 -36 23 -48c60 -50 101 -118 147 -180c12 -18 29 -32 36 -54v-4c0 -23 -22 -45 -35 -57c-51 -9 -90 -44 -139 -56c-10 -11 -12 -28 -12 -43v-12c0 -17 14 -35 32 -35c2 0 3 1 5 1c41 7 77 31 113 53c40 26 82 49 117 83
c11 10 17 24 17 38c0 7 -1 13 -4 20c-7 24 -3 54 -25 72c-31 31 -72 51 -97 88c-38 49 -70 103 -110 151c-9 11 -23 18 -37 18c-8 0 -17 -3 -24 -7c-3 -3 -4 -8 -5 -12z" />
</svg>
