<?xml version="1.0" standalone="no"?>
<!DOCTYPE svg PUBLIC "-//W3C//DTD SVG 1.1//EN" "http://www.w3.org/Graphics/SVG/1.1/DTD/svg11.dtd" >
<svg xmlns="http://www.w3.org/2000/svg" xmlns:xlink="http://www.w3.org/1999/xlink" version="1.1" viewBox="-10 0 431 1024">
   <path fill="currentColor"
d="M68 580c-21 -7 -28 -27 -28 -46c0 -4 0 -8 1 -12c22 -67 66 -109 105 -152c35 -51 82 -95 104 -155c5 -26 11 -53 14 -79v-2c0 -23 -20 -34 -41 -34c-6 0 -12 1 -18 3c-33 9 -57 35 -76 62c-6 13 -22 23 -34 23c-9 0 -17 -6 -18 -21c-1 -8 -2 -16 -2 -24
c0 -22 5 -44 22 -58c23 -22 46 -46 76 -56c7 -1 14 -2 22 -2c23 0 47 6 68 17c31 18 41 52 41 85c0 8 0 15 -1 22c-13 105 -62 203 -122 289c-6 13 -23 31 -23 46c0 5 2 10 7 14h8c27 0 52 -13 78 -20c33 -10 66 -26 101 -26c22 4 33 27 39 46c1 5 1 9 1 13
c0 17 -8 28 -23 35h-3c-43 0 -104 37 -134 37h-1c-27 3 -55 6 -83 6c-23 0 -45 -2 -68 -6c-4 -1 -8 -3 -12 -5zM161 803c-9 -1 -19 -2 -24 -11s-7 -21 -10 -31c0 -9 6 -17 10 -25c10 -17 22 -32 37 -46c7 -5 16 -3 23 -6c11 -4 22 -1 31 5s16 16 16 28v2c0 18 -12 34 -25 45
c-8 7 -17 15 -21 26c1 7 -5 14 -12 14c-8 1 -17 0 -25 -1z" />
</svg>
