<?xml version="1.0" standalone="no"?>
<!DOCTYPE svg PUBLIC "-//W3C//DTD SVG 1.1//EN" "http://www.w3.org/Graphics/SVG/1.1/DTD/svg11.dtd" >
<svg xmlns="http://www.w3.org/2000/svg" xmlns:xlink="http://www.w3.org/1999/xlink" version="1.1" viewBox="-10 0 672 1024">
   <path fill="currentColor"
d="M251 937c-132 -48 -214 -201 -214 -321c0 -25 4 -49 11 -70c26 -133 117 -287 219 -373c43 -34 102 -64 161 -64c12 0 24 2 36 4c51 10 82 33 114 60c37 46 55 104 55 159v9c-2 82 -1 172 -58 242c-36 42 -73 93 -136 101h-10c-26 0 -47 -8 -70 -8c-10 0 -21 1 -32 6
c-20 18 -63 41 -97 41c-12 0 -23 -3 -31 -10c-22 -14 -47 -40 -47 -89c0 -5 0 -12 1 -18c7 -42 22 -86 55 -117c31 -18 57 -44 109 -44h8c49 15 66 57 66 97c0 8 -1 16 -2 23c-4 13 -7 26 -7 36c0 16 7 27 33 28c48 0 75 -43 104 -72c14 -35 40 -75 50 -112
c6 -24 9 -46 9 -67c0 -39 -8 -76 -15 -118c-9 -51 -56 -72 -106 -90c-10 -2 -20 -3 -29 -3c-27 0 -51 8 -77 21c-77 57 -143 123 -178 200c-34 73 -72 134 -73 208c2 61 29 118 53 176c26 55 59 91 121 110c75 -9 128 -57 153 -119c9 -29 10 -45 21 -45c5 0 12 3 22 9
c9 14 13 29 13 44c0 28 -12 56 -28 78c-33 52 -108 91 -174 91c-10 0 -20 -1 -30 -3zM302 635c16 -16 20 -39 21 -61v-16c0 -18 -1 -36 -5 -54c-3 -8 -14 -8 -21 -6c-19 5 -35 17 -49 30c-14 12 -25 28 -31 45c-4 8 -8 17 -8 26c0 4 1 8 3 12c6 13 14 25 24 34
c8 6 17 10 27 10c4 0 8 -1 12 -2c10 -4 19 -10 27 -18z" />
</svg>
