<?xml version="1.0" standalone="no"?>
<!DOCTYPE svg PUBLIC "-//W3C//DTD SVG 1.1//EN" "http://www.w3.org/Graphics/SVG/1.1/DTD/svg11.dtd" >
<svg xmlns="http://www.w3.org/2000/svg" xmlns:xlink="http://www.w3.org/1999/xlink" version="1.1" viewBox="-10 0 595 1024">
   <path fill="currentColor"
d="M29 813c-8 -7 -10 -15 -10 -23c0 -21 19 -43 29 -60c34 -48 64 -98 90 -150c34 -55 64 -111 91 -170c52 -93 99 -187 141 -284c17 -39 35 -79 46 -120c9 -9 22 -13 34 -13c21 0 39 12 40 36c22 99 18 202 25 303c6 85 37 270 37 384c0 56 -8 95 -31 95
c-6 0 -13 -2 -21 -8c-18 -56 -28 -125 -53 -225c-15 -6 -38 -8 -63 -8c-37 0 -79 4 -102 4h-6c-37 0 -65 27 -80 58c-35 56 -63 115 -98 171c-10 12 -27 21 -43 21c-10 0 -19 -4 -26 -11zM445 488c0 -16 1 -32 1 -49c0 -57 -3 -114 -6 -172c-2 -22 -2 -42 -10 -61
c-8 -12 -22 5 -27 12c-4 13 -9 26 -16 39c-53 84 -85 163 -138 239c0 12 21 11 31 13c45 4 91 4 136 4c11 0 28 -1 28 -16c0 -3 1 -6 1 -9z" />
</svg>
