<?xml version="1.0" standalone="no"?>
<!DOCTYPE svg PUBLIC "-//W3C//DTD SVG 1.1//EN" "http://www.w3.org/Graphics/SVG/1.1/DTD/svg11.dtd" >
<svg xmlns="http://www.w3.org/2000/svg" xmlns:xlink="http://www.w3.org/1999/xlink" version="1.1" viewBox="-10 0 647 1024">
   <path fill="currentColor"
d="M139 780c-55 -52 -112 -127 -114 -202c2 -71 9 -142 27 -211c24 -79 52 -152 92 -215c31 -54 79 -105 143 -118c4 -1 9 -1 13 -1c37 0 79 24 79 62v5c-13 43 -60 61 -100 70c-67 29 -102 97 -128 160c-24 66 -41 135 -45 205c0 59 40 107 76 149c32 36 82 58 131 58
c22 0 44 -5 65 -14c70 -24 136 -71 200 -84c24 3 35 25 35 48c0 16 -5 33 -16 43c-27 26 -70 24 -100 46c-64 34 -125 51 -183 51c-60 0 -118 -18 -175 -52z" />
</svg>
