<?xml version="1.0" standalone="no"?>
<!DOCTYPE svg PUBLIC "-//W3C//DTD SVG 1.1//EN" "http://www.w3.org/Graphics/SVG/1.1/DTD/svg11.dtd" >
<svg xmlns="http://www.w3.org/2000/svg" xmlns:xlink="http://www.w3.org/1999/xlink" version="1.1" viewBox="-10 0 811 1024">
   <path fill="currentColor"
d="M97 823c-23 -8 -39 -35 -39 -61c0 -13 4 -25 13 -34c99 -15 195 -18 229 -23c52 -174 81 -358 106 -516c5 -15 15 -21 25 -21c20 0 43 23 43 46c0 3 0 6 -1 9v8c0 136 -24 273 -48 407c-2 6 -4 12 -4 17c0 12 6 19 16 19c6 0 15 -3 23 -10c77 -49 199 -154 200 -243
c3 -16 4 -32 4 -46c0 -124 -90 -190 -172 -234c-27 -11 -57 -18 -87 -18c-32 0 -64 8 -91 28c-15 27 -39 57 -71 57c-9 0 -18 -2 -28 -7c-22 -11 -33 -33 -33 -56c0 -21 9 -42 26 -55c45 -40 105 -60 165 -60c28 0 56 5 82 13c86 28 173 68 233 138c49 60 73 137 73 214
c0 54 -12 108 -36 156c-41 74 -108 130 -175 180c-109 71 -208 107 -320 107c-42 0 -86 -5 -133 -15z" />
</svg>
