<?xml version="1.0" standalone="no"?>
<!DOCTYPE svg PUBLIC "-//W3C//DTD SVG 1.1//EN" "http://www.w3.org/Graphics/SVG/1.1/DTD/svg11.dtd" >
<svg xmlns="http://www.w3.org/2000/svg" xmlns:xlink="http://www.w3.org/1999/xlink" version="1.1" viewBox="-10 0 606 1024">
   <path fill="currentColor"
d="M149 832c-75 -16 -124 -68 -134 -142c-5 -39 -8 -71 -8 -103c0 -85 22 -164 84 -344c4 -11 -1 -19 -10 -19c-21 0 -43 -44 -43 -79c0 -6 1 -11 2 -16c8 -32 75 -75 117 -75h3h7c28 0 113 -3 202 -7c47 -2 92 -3 127 -3c39 0 67 1 72 4c12 5 18 32 18 57
c0 22 -5 44 -15 51c-15 12 -231 39 -302 39h-7c-11 -1 -21 -1 -29 -1c-71 0 -29 25 -61 103c-15 36 -33 79 -42 96c-6 11 -9 24 -9 32c0 4 0 7 2 9c5 6 74 15 153 19s150 14 158 22c7 7 10 16 10 27c0 24 -16 54 -39 65c-1 1 -3 1 -5 1c-18 0 -54 -32 -78 -37
c-15 -3 -32 -4 -51 -4c-70 0 -159 18 -176 40c-7 9 -10 22 -10 37c0 22 7 48 18 72c12 25 33 50 47 56c15 6 39 9 63 9c36 0 73 -7 82 -18c7 -9 23 -17 34 -17s28 -10 36 -23c10 -15 20 -23 30 -23s19 9 24 25c2 6 3 12 3 17c0 25 -21 46 -79 85c-51 34 -95 50 -143 50
c-16 0 -33 -1 -51 -5z" />
</svg>
