<?xml version="1.0" standalone="no"?>
<!DOCTYPE svg PUBLIC "-//W3C//DTD SVG 1.1//EN" "http://www.w3.org/Graphics/SVG/1.1/DTD/svg11.dtd" >
<svg xmlns="http://www.w3.org/2000/svg" xmlns:xlink="http://www.w3.org/1999/xlink" version="1.1" viewBox="-10 0 655 1024">
   <path fill="currentColor"
d="M22 803c-1 -3 -1 -8 -1 -13c0 -20 5 -52 14 -80c28 -91 60 -241 60 -278c0 -35 16 -204 34 -253c-32 -3 -34 -3 -34 -3c-27 -5 -33 -17 -36 -72c-1 -9 -1 -17 -1 -25c0 -28 4 -45 13 -49s92 -16 184 -27s183 -25 205 -34s66 -21 99 -27c17 -3 30 -5 39 -5
c17 0 22 6 22 20c0 15 -8 33 -18 41s-20 29 -23 48c-1 8 -3 10 -10 10c-10 0 -29 -5 -64 -5c-25 0 -57 2 -101 12c-63 9 -134 16 -210 44c-6 73 -29 165 -29 229c0 14 2 26 4 37c6 2 13 2 22 2c62 0 188 -37 213 -37c2 0 3 0 4 1c6 8 9 23 9 39c0 30 -10 65 -26 74
c-12 6 -63 15 -115 21c-104 11 -130 34 -130 111c0 28 -7 73 -15 100s-16 57 -17 67c-5 49 -36 82 -61 82c-13 0 -25 -9 -31 -30z" />
</svg>
