<?xml version="1.0" standalone="no"?>
<!DOCTYPE svg PUBLIC "-//W3C//DTD SVG 1.1//EN" "http://www.w3.org/Graphics/SVG/1.1/DTD/svg11.dtd" >
<svg xmlns="http://www.w3.org/2000/svg" xmlns:xlink="http://www.w3.org/1999/xlink" version="1.1" viewBox="-10 0 654 1024">
   <path fill="currentColor"
d="M149 802c-46 -38 -76 -93 -103 -146c-17 -34 -23 -71 -23 -108c0 -47 10 -95 20 -140c32 -124 83 -247 170 -343c34 -35 73 -73 123 -81h1c27 0 37 21 37 45c0 19 -7 40 -15 53c-22 27 -61 24 -83 54c-60 76 -151 183 -156 263c-11 41 -22 84 -22 127c0 22 3 44 11 66
c22 63 64 130 133 146c4 1 9 1 13 1c38 0 72 -26 104 -41c37 -14 65 -41 97 -61c33 -10 42 -51 50 -81c2 -11 5 -24 5 -37c0 -21 -6 -41 -27 -41c-4 0 -9 1 -15 3c-14 1 -31 5 -48 5c-21 0 -40 -6 -48 -28c-3 -15 -6 -32 -6 -48c0 -20 5 -40 20 -54c21 -13 45 -17 70 -17
c21 0 42 3 62 4c36 2 70 24 79 60c3 15 10 35 10 53c0 13 -4 24 -15 31c-6 16 -8 32 -8 48c0 21 3 43 3 65v10v10v41c0 28 -2 55 -14 80c-9 13 -14 17 -19 17c-12 0 -16 -32 -40 -32h-2c-32 10 -104 25 -126 51c-36 13 -64 29 -97 35c-20 1 -41 3 -62 3
c-27 0 -54 -3 -79 -13z" />
</svg>
