<?xml version="1.0" standalone="no"?>
<!DOCTYPE svg PUBLIC "-//W3C//DTD SVG 1.1//EN" "http://www.w3.org/Graphics/SVG/1.1/DTD/svg11.dtd" >
<svg xmlns="http://www.w3.org/2000/svg" xmlns:xlink="http://www.w3.org/1999/xlink" version="1.1" viewBox="-10 0 646 1024">
   <path fill="currentColor"
d="M57 875c-2 -6 -3 -11 -3 -16c0 -23 19 -40 19 -63c0 -5 -1 -10 -3 -16c6 -75 42 -144 45 -219c28 -78 59 -165 70 -240c17 -72 35 -143 60 -213c6 -12 16 -17 25 -17c20 0 40 21 40 43c0 5 -1 10 -3 15c-11 50 -35 97 -47 147c-20 76 -41 152 -60 228c-2 5 -2 10 -2 13
c0 10 6 14 15 14c19 0 50 -14 65 -14c60 -11 115 -40 176 -46c3 1 6 1 9 1c39 0 40 -52 47 -82c22 -119 30 -239 37 -360c3 -2 5 -3 8 -3c17 0 36 40 41 56c2 6 3 16 3 31c0 64 -15 201 -22 282c-9 114 -54 230 -54 345c0 27 -25 52 -48 52c-12 0 -24 -6 -31 -22
c-3 -12 -5 -25 -5 -37c0 -48 20 -96 22 -145c-3 -15 -12 -20 -23 -20c-21 0 -49 17 -67 22c-65 26 -180 12 -185 23c-15 43 -24 88 -24 134v14c10 12 14 26 14 41c0 22 -10 44 -28 59c-12 16 -35 29 -55 29c-15 0 -29 -8 -34 -28c0 -3 -2 -5 -2 -8z" />
</svg>
