<?xml version="1.0" standalone="no"?>
<!DOCTYPE svg PUBLIC "-//W3C//DTD SVG 1.1//EN" "http://www.w3.org/Graphics/SVG/1.1/DTD/svg11.dtd" >
<svg xmlns="http://www.w3.org/2000/svg" xmlns:xlink="http://www.w3.org/1999/xlink" version="1.1" viewBox="-10 0 296 1024">
   <path fill="currentColor"
d="M26 782c-8 -13 -11 -25 -11 -39c0 -27 11 -55 15 -81c18 -164 74 -300 99 -448c14 -57 42 -108 59 -164c12 -23 17 -62 48 -65c27 1 39 22 39 44c0 10 -2 21 -7 30c-47 116 -49 225 -85 333c-24 95 -39 192 -51 290c-2 41 -5 90 -42 115c-8 5 -17 7 -25 7
c-16 0 -31 -8 -39 -22z" />
</svg>
