<?xml version="1.0" standalone="no"?>
<!DOCTYPE svg PUBLIC "-//W3C//DTD SVG 1.1//EN" "http://www.w3.org/Graphics/SVG/1.1/DTD/svg11.dtd" >
<svg xmlns="http://www.w3.org/2000/svg" xmlns:xlink="http://www.w3.org/1999/xlink" version="1.1" viewBox="-10 0 573 1024">
   <path fill="currentColor"
d="M68 990c-38 -18 -48 -39 -48 -96c0 -46 33 -82 67 -82c8 0 16 2 24 6c12 7 16 18 16 37v12c-1 7 -1 12 -1 17c0 19 7 23 33 25c4 0 9 1 13 1c56 0 97 -44 143 -150c24 -55 43 -107 43 -116c33 -109 57 -199 77 -314c7 -40 16 -89 22 -109c8 -27 12 -47 12 -63
c0 -27 -13 -39 -42 -39c-16 0 -38 3 -65 10c-32 7 -67 12 -89 12c-8 0 -14 -1 -18 -2c-24 -7 -42 -34 -42 -56c0 -7 1 -13 5 -18c15 -22 133 -44 231 -45l97 2c0 49 -18 214 -29 260s-26 111 -33 144s-16 68 -19 78s-17 67 -30 126c-52 234 -168 378 -292 378
c-25 0 -50 -6 -75 -18z" />
</svg>
