<?xml version="1.0" standalone="no"?>
<!DOCTYPE svg PUBLIC "-//W3C//DTD SVG 1.1//EN" "http://www.w3.org/Graphics/SVG/1.1/DTD/svg11.dtd" >
<svg xmlns="http://www.w3.org/2000/svg" xmlns:xlink="http://www.w3.org/1999/xlink" version="1.1" viewBox="-10 0 585 1024">
   <path fill="currentColor"
d="M24 782c-10 -10 -14 -22 -14 -34c0 -23 13 -48 20 -69c11 -33 6 -68 19 -101c43 -179 79 -359 114 -540c13 -35 2 -86 32 -111h1c33 0 51 30 51 59c0 10 -2 19 -6 28c-23 47 -28 102 -40 153c-18 90 -31 181 -58 269v3c0 13 7 18 17 18c21 0 56 -21 64 -32
c36 -42 51 -95 91 -134c38 -62 61 -133 77 -204c6 -29 -5 -91 34 -91c5 0 10 1 16 3c28 2 49 24 49 50c0 8 -2 16 -6 24c-32 106 -80 207 -136 302c-26 42 -67 86 -87 132c41 62 138 90 196 119c46 6 86 44 102 87c3 8 5 17 5 26c0 28 -16 56 -45 60c-53 -8 5 -42 -89 -72
c-117 -91 -193 -115 -276 -142c-45 0 -45 82 -50 115c-1 7 -2 14 -2 22c0 9 1 19 1 28c0 23 -3 45 -25 55c-4 1 -7 1 -11 1c-18 0 -33 -11 -44 -24z" />
</svg>
