<?xml version="1.0" standalone="no"?>
<!DOCTYPE svg PUBLIC "-//W3C//DTD SVG 1.1//EN" "http://www.w3.org/Graphics/SVG/1.1/DTD/svg11.dtd" >
<svg xmlns="http://www.w3.org/2000/svg" xmlns:xlink="http://www.w3.org/1999/xlink" version="1.1" viewBox="-10 0 498 1024">
   <path fill="currentColor"
d="M106 815c-31 -2 -72 -5 -84 -40c-9 -23 -12 -47 -12 -69c0 -69 32 -134 40 -196c27 -131 50 -262 74 -394c6 -35 27 -43 32 -77c3 -22 11 -39 23 -39c7 0 15 6 25 20c19 27 26 40 26 61c0 10 -2 21 -4 35c-15 98 -33 186 -56 282c-12 36 -26 80 -34 118
c-13 53 -28 107 -30 162c9 35 58 29 85 39c18 3 34 4 50 4c47 0 91 -10 142 -10h5h1c33 0 21 69 49 69c3 0 6 -1 9 -2l29 26c-94 0 -216 12 -318 12c-18 0 -36 0 -52 -1z" />
</svg>
