<?xml version="1.0" standalone="no"?>
<!DOCTYPE svg PUBLIC "-//W3C//DTD SVG 1.1//EN" "http://www.w3.org/Graphics/SVG/1.1/DTD/svg11.dtd" >
<svg xmlns="http://www.w3.org/2000/svg" xmlns:xlink="http://www.w3.org/1999/xlink" version="1.1" viewBox="-10 0 571 1024">
   <path fill="currentColor"
d="M383 831c-7 -9 -32 -4 -32 -14v-1c22 -160 35 -306 66 -465c2 -6 3 -10 3 -15c0 -15 -10 -24 -22 -24c-10 0 -22 6 -31 19c-19 13 -41 18 -65 18c-16 0 -33 -2 -49 -6c-17 -17 -34 -25 -48 -25c-18 0 -31 14 -32 44c-10 82 -17 165 -39 245c-12 50 -15 101 -26 151
c-2 21 -24 41 -45 41c-9 0 -17 -3 -24 -12c-6 -16 -8 -33 -8 -50c0 -29 6 -59 9 -87c18 -114 49 -227 49 -343c5 -67 10 -134 26 -199c5 -15 12 -21 20 -21c19 0 44 31 52 48c12 69 44 86 89 104c18 4 37 8 54 8c21 0 40 -5 53 -21c33 -42 52 -71 69 -177
c7 -15 17 -21 28 -21c20 0 40 22 40 46v2v19c0 66 -13 131 -21 197c-10 71 -23 141 -37 211c-9 116 -21 232 -41 346c-2 13 -4 18 -7 18c-6 0 -16 -21 -31 -36z" />
</svg>
