<?xml version="1.0" standalone="no"?>
<!DOCTYPE svg PUBLIC "-//W3C//DTD SVG 1.1//EN" "http://www.w3.org/Graphics/SVG/1.1/DTD/svg11.dtd" >
<svg xmlns="http://www.w3.org/2000/svg" xmlns:xlink="http://www.w3.org/1999/xlink" version="1.1" viewBox="-10 0 633 1024">
   <path fill="currentColor"
d="M288 845c-61 -176 -48 -361 -89 -525c-45 159 -34 318 -76 465c-3 22 -34 32 -58 32c-17 0 -31 -5 -31 -14c0 -3 2 -8 6 -12c27 -40 22 -93 30 -140c29 -198 56 -329 83 -499c-1 -3 -1 -7 -1 -10c0 -27 16 -66 38 -66c7 0 15 4 23 13c26 33 31 79 43 119
c38 184 49 334 69 502c74 -238 101 -377 157 -576c17 -75 34 -150 44 -226c2 -23 14 -32 27 -32c17 0 35 16 35 38c0 3 0 6 -1 10c-52 319 -205 863 -260 948c-3 2 -6 3 -9 3c-13 0 -23 -19 -30 -30z" />
</svg>
