<?xml version="1.0" standalone="no"?>
<!DOCTYPE svg PUBLIC "-//W3C//DTD SVG 1.1//EN" "http://www.w3.org/Graphics/SVG/1.1/DTD/svg11.dtd" >
<svg xmlns="http://www.w3.org/2000/svg" xmlns:xlink="http://www.w3.org/1999/xlink" version="1.1" viewBox="-10 0 520 1024">
   <path fill="currentColor"
d="M128 796c-35 -24 -54 -65 -74 -101c-19 -36 -25 -76 -25 -116c0 -37 5 -74 9 -110c9 -68 27 -133 49 -198c27 -95 51 -196 112 -276c17 -24 46 -42 75 -42c10 0 20 2 30 7c29 14 56 36 71 64c34 1 80 -5 89 41c7 25 10 51 10 77c0 48 -10 95 -18 142
c-29 129 -71 255 -132 372c-33 57 -69 123 -136 145c-6 3 -12 4 -19 4c-14 0 -28 -5 -41 -9zM234 645c62 -65 97 -152 120 -238c22 -75 41 -150 51 -227c5 -26 -16 -13 -15 5c-9 22 -13 48 -31 64c-20 -7 -30 -32 -31 -54c1 -5 1 -10 1 -15c0 -29 -10 -57 -19 -84
c-4 -17 -21 -35 -38 -35c-6 0 -12 2 -18 7c-36 30 -54 75 -72 117c-46 114 -70 236 -82 358c-1 10 -2 19 -2 29c0 30 7 61 24 87c9 14 25 31 43 31c4 0 8 -1 13 -3c22 -10 40 -25 56 -42z" />
</svg>
