<?xml version="1.0" standalone="no"?>
<!DOCTYPE svg PUBLIC "-//W3C//DTD SVG 1.1//EN" "http://www.w3.org/Graphics/SVG/1.1/DTD/svg11.dtd" >
<svg xmlns="http://www.w3.org/2000/svg" xmlns:xlink="http://www.w3.org/1999/xlink" version="1.1" viewBox="-10 0 599 1024">
   <path fill="currentColor"
d="M74 796v-7c0 -43 17 -84 27 -126c35 -110 66 -221 100 -332c12 -30 49 -198 78 -217c16 0 22 31 22 69c0 54 -12 123 -23 140c-3 14 -20 44 -20 57c0 4 2 7 6 7s10 -2 18 -6c78 -26 141 -89 178 -162c8 -13 12 -27 12 -41c0 -23 -11 -44 -36 -53
c-49 -27 -104 -41 -159 -48c-5 -1 -9 -1 -14 -1c-56 0 -105 37 -142 77c-21 18 -43 44 -72 44c-3 0 -6 0 -9 -1c-7 -8 -10 -17 -10 -26c0 -25 20 -53 31 -73c40 -65 112 -109 189 -109h3c87 0 170 30 246 69c31 22 66 51 66 91v2c-14 55 -40 108 -70 156
c-45 68 -98 135 -171 173c-8 6 -18 7 -28 7c-7 0 -15 -1 -22 -1c-15 0 -29 4 -35 25c-44 91 -65 192 -110 283c-5 15 -16 23 -28 23c-11 0 -21 -7 -27 -20z" />
</svg>
