<?xml version="1.0" standalone="no"?>
<!DOCTYPE svg PUBLIC "-//W3C//DTD SVG 1.1//EN" "http://www.w3.org/Graphics/SVG/1.1/DTD/svg11.dtd" >
<svg xmlns="http://www.w3.org/2000/svg" xmlns:xlink="http://www.w3.org/1999/xlink" version="1.1" viewBox="-10 0 750 1024">
   <path fill="currentColor"
d="M632 917c-40 -29 -85 -14 -122 -31c-53 -13 -73 -78 -128 -87c-15 2 -31 3 -47 3c-43 0 -86 -8 -120 -36c-83 -79 -185 -214 -185 -316c0 -5 0 -11 1 -16c12 -119 81 -225 166 -306c47 -46 107 -77 173 -85c36 -6 73 -12 111 -12s76 6 110 26c51 32 46 98 51 150
c2 27 3 54 3 80c0 117 -20 226 -67 326c-17 48 -58 88 -60 140c20 41 92 69 136 74c10 -4 19 -6 28 -6c16 0 28 7 28 25c0 7 -2 15 -6 25c-10 19 -52 57 -67 57c-4 0 -5 -2 -5 -7v-4zM320 633c-1 -14 -2 -21 -2 -26c0 -8 2 -12 7 -31c4 -14 16 -20 28 -20c11 0 22 5 30 14
c28 23 33 60 47 91c3 11 18 29 27 29c4 0 8 -4 8 -15c12 -52 43 -97 53 -149c15 -55 21 -105 28 -161c4 -51 7 -106 7 -159c0 -18 0 -36 -1 -53c0 -28 -20 -57 -50 -57h-3h-8c-102 0 -199 54 -265 130c-54 60 -94 138 -94 221v12c22 100 50 212 137 241c15 10 51 32 68 32
c6 0 9 -2 9 -8c0 -2 0 -4 -1 -7c-1 -13 -24 -72 -25 -84z" />
</svg>
