<?xml version="1.0" standalone="no"?>
<!DOCTYPE svg PUBLIC "-//W3C//DTD SVG 1.1//EN" "http://www.w3.org/Graphics/SVG/1.1/DTD/svg11.dtd" >
<svg xmlns="http://www.w3.org/2000/svg" xmlns:xlink="http://www.w3.org/1999/xlink" version="1.1" viewBox="-10 0 718 1024">
   <path fill="currentColor"
d="M445 780c-73 -43 -103 -113 -153 -169c-23 -30 -51 -56 -78 -82c-4 -7 -6 -13 -6 -19c0 -29 37 -54 57 -72c89 -65 128 -137 167 -225c5 -8 7 -14 7 -21c0 -29 -36 -50 -60 -63c-42 -20 -89 -41 -136 -41c-6 0 -12 0 -19 1c-60 16 -91 77 -135 115c-8 9 -16 12 -23 12
c-17 0 -29 -20 -29 -41c0 -6 1 -13 3 -18c18 -66 77 -115 140 -137c20 -5 40 -8 60 -8c72 0 144 31 199 76c31 25 59 64 59 105c0 11 -2 23 -7 34c-32 93 -82 181 -145 256l-24 30c22 32 50 61 62 98c32 39 73 79 126 79h2c42 -19 97 -84 142 -84c7 0 13 2 20 5
c5 7 7 15 7 22c0 26 -26 53 -41 73c-36 44 -86 81 -145 86h-7c-15 0 -30 -5 -43 -12zM107 772c-6 -16 -9 -32 -9 -49c0 -33 10 -68 18 -100c34 -105 21 -211 60 -313c13 -52 11 -107 24 -159c1 -13 10 -22 19 -22c7 0 14 5 17 15c9 15 11 32 11 49c0 13 -1 27 -1 39
c-2 34 -7 68 -19 100c-13 74 -14 148 -25 222c-10 73 -16 148 -40 218c-2 16 -16 31 -29 31c-7 0 -14 -4 -18 -15c-3 -5 -6 -10 -8 -16z" />
</svg>
