<?xml version="1.0" standalone="no"?>
<!DOCTYPE svg PUBLIC "-//W3C//DTD SVG 1.1//EN" "http://www.w3.org/Graphics/SVG/1.1/DTD/svg11.dtd" >
<svg xmlns="http://www.w3.org/2000/svg" xmlns:xlink="http://www.w3.org/1999/xlink" version="1.1" viewBox="-27 0 634 1024">
   <path fill="currentColor"
d="M128 797c-58 -31 -122 -71 -142 -138c-2 -7 -3 -14 -3 -21c0 -34 21 -70 56 -77c48 0 58 84 91 111c26 26 77 39 120 39c10 0 20 0 29 -2c30 -4 63 -42 63 -79v-2c-17 -78 -49 -151 -84 -222c-17 -32 -43 -59 -58 -93c-25 -45 -48 -94 -48 -145c0 -14 2 -29 6 -43
c4 -40 32 -71 68 -86c59 -28 126 -46 193 -46c32 0 64 4 95 13c31 8 61 34 61 67c0 4 0 9 -1 13c-6 11 -17 14 -31 14c-25 0 -58 -10 -81 -10c-4 0 -8 0 -11 1c-55 10 -135 14 -187 34c-8 10 -11 26 -11 44c0 29 7 62 9 82c42 146 171 239 198 370c2 7 3 14 3 20
c0 31 -20 56 -40 81c-40 44 -85 89 -147 96c-14 2 -28 3 -42 3c-37 0 -73 -7 -106 -24z" />
</svg>
