<?xml version="1.0" standalone="no"?>
<!DOCTYPE svg PUBLIC "-//W3C//DTD SVG 1.1//EN" "http://www.w3.org/Graphics/SVG/1.1/DTD/svg11.dtd" >
<svg xmlns="http://www.w3.org/2000/svg" xmlns:xlink="http://www.w3.org/1999/xlink" version="1.1" viewBox="-10 0 641 1024">
   <path fill="currentColor"
d="M174 790c-7 -9 -10 -18 -10 -28c0 -31 28 -67 35 -97c46 -155 65 -311 91 -471c4 -23 7 -43 7 -57c0 -20 -6 -31 -19 -31h-4c-54 5 -156 4 -224 67c-12 -45 -25 -55 -27 -102c26 -29 74 -23 109 -27c8 1 17 1 27 1c93 0 238 -35 337 -46c3 0 13 -1 25 -1c32 0 81 7 81 51
c0 10 -3 22 -9 37c-7 14 -16 18 -27 18c-16 0 -36 -9 -55 -9h-3c-5 0 -10 1 -16 1c-7 0 -14 -1 -22 -1c-30 0 -60 3 -74 33c-35 69 -43 147 -54 222c-15 146 -41 291 -75 434c-2 25 -18 34 -37 34c-21 0 -44 -12 -56 -28z" />
</svg>
