<?xml version="1.0" standalone="no"?>
<!DOCTYPE svg PUBLIC "-//W3C//DTD SVG 1.1//EN" "http://www.w3.org/Graphics/SVG/1.1/DTD/svg11.dtd" >
<svg xmlns="http://www.w3.org/2000/svg" xmlns:xlink="http://www.w3.org/1999/xlink" version="1.1" viewBox="-10 0 667 1024">
   <path fill="currentColor"
d="M170 805c1 -8 1 -15 1 -23c0 -31 -6 -61 -21 -89c-45 -185 -70 -374 -96 -563c-2 -38 -11 -76 -11 -114c0 -13 1 -26 4 -39c7 -14 15 -20 23 -20c20 0 39 40 41 61c29 190 64 372 87 549c5 17 -1 49 14 49c4 0 9 -2 17 -8c112 -255 200 -484 320 -703
c4 -11 18 -16 32 -16c17 0 34 8 34 22c0 4 -2 9 -5 14c-128 284 -248 603 -371 857c-8 17 -28 38 -46 38c-8 0 -16 -5 -23 -15z" />
</svg>
