<?xml version="1.0" standalone="no"?>
<!DOCTYPE svg PUBLIC "-//W3C//DTD SVG 1.1//EN" "http://www.w3.org/Graphics/SVG/1.1/DTD/svg11.dtd" >
<svg xmlns="http://www.w3.org/2000/svg" xmlns:xlink="http://www.w3.org/1999/xlink" version="1.1" viewBox="-10 0 863 1024">
   <path fill="currentColor"
d="M57 849c-22 -45 -30 -100 -30 -157c0 -106 27 -221 39 -301c6 -17 8 -36 8 -54c0 -23 -3 -47 -3 -70c0 -20 2 -39 10 -58c4 -2 9 -3 14 -3c31 0 63 47 63 74c0 2 -1 4 -1 6c-8 118 -34 234 -44 352c-2 12 -3 30 -3 48c0 42 7 90 35 105c47 -7 81 -119 99 -174
c73 -180 35 -112 60 -203c1 -21 21 -31 42 -31c22 0 44 11 44 32c0 3 0 6 -1 9c-1 19 -1 37 -1 54c0 171 35 215 63 240c4 2 8 4 12 4c19 0 28 -30 47 -59c65 -110 101 -247 108 -364c19 -103 59 -206 94 -305c6 -26 37 -64 64 -64c11 0 21 6 28 23c2 10 3 21 3 32
c0 31 -8 62 -27 84c-34 72 -47 150 -58 229c-25 168 -141 525 -269 525c-17 0 -33 -6 -50 -19c-41 -32 -54 -84 -71 -131c-3 -3 -6 -5 -9 -5c-16 0 -23 53 -36 65c-32 57 -61 125 -121 157c-11 6 -23 8 -34 8c-31 0 -61 -20 -75 -49z" />
</svg>
