<?xml version="1.0" standalone="no"?>
<!DOCTYPE svg PUBLIC "-//W3C//DTD SVG 1.1//EN" "http://www.w3.org/Graphics/SVG/1.1/DTD/svg11.dtd" >
<svg xmlns="http://www.w3.org/2000/svg" xmlns:xlink="http://www.w3.org/1999/xlink" version="1.1" viewBox="-10 0 592 1024">
   <path fill="currentColor"
d="M40 802c-13 -10 -20 -19 -20 -31c0 -18 15 -43 49 -92c85 -124 142 -222 142 -251c0 -15 -22 -84 -46 -154c-32 -92 -65 -193 -82 -193c-5 0 -10 1 -13 1c-11 0 -14 -6 -14 -56c0 -28 40 -69 68 -69c35 0 44 61 103 227c24 69 56 134 60 134c5 0 50 -58 197 -258
c15 -21 41 -33 60 -33c13 0 23 5 23 18c0 10 -44 79 -100 154c-152 204 -97 122 -154 252c20 68 91 231 103 248c11 15 15 35 15 53c0 27 -10 51 -27 51h-1c-35 -1 -73 -56 -116 -168c-26 -68 -37 -92 -47 -92c-5 0 -10 6 -17 15c-12 16 -47 83 -78 146
c-40 83 -57 113 -76 113c-8 0 -17 -6 -29 -15z" />
</svg>
