<?xml version="1.0" standalone="no"?>
<!DOCTYPE svg PUBLIC "-//W3C//DTD SVG 1.1//EN" "http://www.w3.org/Graphics/SVG/1.1/DTD/svg11.dtd" >
<svg xmlns="http://www.w3.org/2000/svg" xmlns:xlink="http://www.w3.org/1999/xlink" version="1.1" viewBox="-10 0 679 1024">
   <path fill="currentColor"
d="M40 988c-6 -14 -10 -24 -10 -34c0 -16 8 -32 27 -68c45 -75 79 -159 110 -231c18 -43 53 -91 65 -109c11 -15 16 -24 16 -31s-6 -13 -19 -25c-98 -89 -135 -149 -172 -289c-10 -36 -14 -67 -14 -90c0 -32 9 -50 25 -50h4c24 5 51 35 85 145c50 160 71 211 124 211
c10 0 24 -29 39 -54s35 -55 35 -55c4 -3 28 -44 60 -92s81 -94 95 -114c37 -53 85 -91 109 -91c9 0 15 6 15 18c0 16 -86 145 -108 161c-4 3 -22 30 -40 58c-21 34 -119 142 -119 175c0 6 4 10 12 10h3c6 3 9 8 9 14c0 28 -65 77 -72 93c-53 76 -67 185 -111 247
c-34 63 -79 125 -94 191c-7 31 -21 47 -36 47c-13 0 -27 -12 -38 -37z" />
</svg>
