<?xml version="1.0" standalone="no"?>
<!DOCTYPE svg PUBLIC "-//W3C//DTD SVG 1.1//EN" "http://www.w3.org/Graphics/SVG/1.1/DTD/svg11.dtd" >
<svg xmlns="http://www.w3.org/2000/svg" xmlns:xlink="http://www.w3.org/1999/xlink" version="1.1" viewBox="-10 0 658 1024">
   <path fill="currentColor"
d="M176 805c-41 -11 -63 -54 -103 -68c-33 -33 -42 -67 -42 -100c0 -37 12 -74 15 -112c14 -11 20 -21 20 -28c0 -21 -41 -29 -41 -41c0 -3 2 -6 7 -9c26 -22 70 -5 92 -41c63 -46 113 -108 159 -170c17 -27 41 -55 41 -88v-2c-29 -23 -69 -25 -104 -27
c-52 2 -109 29 -161 29c-25 -5 -33 -33 -33 -58c0 -9 1 -18 3 -26c41 -35 120 -51 198 -51c84 0 165 19 198 54c15 11 21 25 21 40c0 18 -7 36 -16 52c-36 91 -104 162 -156 243c-2 4 -3 7 -3 10c0 7 7 10 18 10c16 0 38 -5 48 -5h1h10c33 0 72 9 84 43c1 4 2 8 2 12
c0 30 -34 49 -62 54c-55 16 -113 16 -170 19c-35 7 -75 33 -75 72c11 41 58 56 95 65c21 4 44 6 68 6c67 0 142 -15 199 -31c35 -3 22 -45 54 -45h3c5 -1 10 -2 15 -2c26 0 51 17 51 43c0 6 -1 12 -4 19c-15 52 -71 74 -117 91c-79 25 -163 39 -245 49c-6 0 -11 1 -17 1
c-18 0 -36 -3 -53 -8z" />
</svg>
