<?xml version="1.0" standalone="no"?>
<!DOCTYPE svg PUBLIC "-//W3C//DTD SVG 1.1//EN" "http://www.w3.org/Graphics/SVG/1.1/DTD/svg11.dtd" >
<svg xmlns="http://www.w3.org/2000/svg" xmlns:xlink="http://www.w3.org/1999/xlink" version="1.1" viewBox="-10 0 419 1024">
   <path fill="currentColor"
d="M65 779c-5 -10 -6 -20 -6 -31c0 -19 5 -38 6 -56c13 -73 19 -146 20 -220c4 -105 7 -210 18 -315c2 -33 25 -62 53 -78c30 3 60 5 90 6c37 3 76 -1 112 11c13 8 21 23 21 37c0 11 -5 22 -15 29c-9 13 -21 16 -35 16s-29 -3 -42 -3h-3h-4c-40 0 -76 14 -114 24
c-23 17 -18 50 -22 75c-11 147 -18 295 -22 443c22 -2 44 -8 66 -8l12 1c9 6 13 16 13 26c0 18 -12 37 -30 41c-22 9 -46 16 -70 16c-14 0 -27 -3 -40 -8c-3 -2 -6 -3 -8 -6z" />
</svg>
