<?xml version="1.0" standalone="no"?>
<!DOCTYPE svg PUBLIC "-//W3C//DTD SVG 1.1//EN" "http://www.w3.org/Graphics/SVG/1.1/DTD/svg11.dtd" >
<svg xmlns="http://www.w3.org/2000/svg" xmlns:xlink="http://www.w3.org/1999/xlink" version="1.1" viewBox="-19 0 455 1024">
   <path fill="currentColor"
d="M328 774c-20 -20 -33 -45 -42 -71c-27 -47 -55 -95 -70 -148c-14 -42 -41 -78 -58 -119c-38 -87 -132 -146 -164 -227c-2 -5 -3 -9 -3 -14c0 -27 29 -49 56 -49h6h6c33 0 37 37 53 60c31 51 67 98 102 145c37 58 57 124 90 184c22 42 87 155 89 193c10 30 24 8 33 38
c-5 19 -30 42 -53 42c-4 0 -8 0 -12 -2c-13 -9 -23 -21 -33 -32z" />
</svg>
