<?xml version="1.0" standalone="no"?>
<!DOCTYPE svg PUBLIC "-//W3C//DTD SVG 1.1//EN" "http://www.w3.org/Graphics/SVG/1.1/DTD/svg11.dtd" >
<svg xmlns="http://www.w3.org/2000/svg" xmlns:xlink="http://www.w3.org/1999/xlink" version="1.1" viewBox="-10 0 370 1024">
   <path fill="currentColor"
d="M55 807c-7 -14 -11 -30 -11 -46c0 -13 2 -26 7 -37c18 -24 52 -18 78 -21c22 -3 61 3 61 -26c0 -2 0 -5 -1 -8c6 -87 10 -175 20 -262c4 -54 17 -108 20 -162c1 -3 1 -7 1 -10c0 -23 -25 -33 -47 -33h-3c-6 -1 -11 -1 -17 -1l-76 5c-15 -4 -11 -26 -30 -26
c-5 -6 -8 -14 -8 -23c0 -20 13 -41 34 -41h2h4c47 0 89 28 136 28h9c6 -3 13 -4 19 -4c16 0 31 9 38 25c4 8 14 14 9 23c-25 106 -46 212 -53 321c-1 28 -1 56 -1 84c0 47 1 95 7 141c2 7 3 14 3 22c0 22 -8 44 -25 55c-38 5 -75 9 -113 9l-37 -1c-9 -1 -20 -4 -26 -12z" />
</svg>
