<?xml version="1.0" standalone="no"?>
<!DOCTYPE svg PUBLIC "-//W3C//DTD SVG 1.1//EN" "http://www.w3.org/Graphics/SVG/1.1/DTD/svg11.dtd" >
<svg xmlns="http://www.w3.org/2000/svg" xmlns:xlink="http://www.w3.org/1999/xlink" version="1.1" viewBox="-10 0 429 1024">
   <path fill="currentColor"
d="M80 196c-9 -3 -15 -12 -15 -21c0 -3 0 -6 2 -9c7 -19 30 -28 36 -48c19 -29 44 -53 64 -81c19 -26 34 -55 60 -74c10 -8 24 -15 38 -15c7 0 13 2 19 6c13 10 22 26 23 42c5 24 21 44 25 68c6 24 26 41 29 66v4c0 16 -15 31 -31 31h-1c-22 0 -44 -17 -47 -39
c-8 -28 -16 -57 -30 -83c-1 0 -2 -1 -3 -1c-9 0 -16 18 -23 24c-28 37 -52 78 -82 114c-10 12 -24 23 -39 23c-3 0 -6 0 -9 -1c-5 -1 -11 -4 -16 -6z" />
</svg>
