<?xml version="1.0" standalone="no"?>
<!DOCTYPE svg PUBLIC "-//W3C//DTD SVG 1.1//EN" "http://www.w3.org/Graphics/SVG/1.1/DTD/svg11.dtd" >
<svg xmlns="http://www.w3.org/2000/svg" xmlns:xlink="http://www.w3.org/1999/xlink" version="1.1" viewBox="-10 0 525 1024">
   <path fill="currentColor"
d="M193 912h-12c-23 0 -46 1 -69 1c-22 0 -44 -1 -65 -5c-16 -2 -30 -15 -30 -32v-5v-2c0 -15 9 -31 24 -36c36 -13 76 -12 114 -14c37 -1 75 -1 113 -1c46 0 92 0 138 2c25 2 50 1 72 13c6 4 8 10 8 16c0 11 -6 23 -10 32c-5 16 -20 25 -35 25h-4c-24 0 -48 -2 -72 -2
c-22 0 -43 2 -65 7c-13 4 -27 5 -40 5c-23 0 -46 -3 -67 -4z" />
</svg>
