<?xml version="1.0" standalone="no"?>
<!DOCTYPE svg PUBLIC "-//W3C//DTD SVG 1.1//EN" "http://www.w3.org/Graphics/SVG/1.1/DTD/svg11.dtd" >
<svg xmlns="http://www.w3.org/2000/svg" xmlns:xlink="http://www.w3.org/1999/xlink" version="1.1" viewBox="-10 0 545 1024">
   <path fill="currentColor"
d="M403 943c-28 -42 -41 -93 -42 -143c0 -3 1 -7 1 -10c0 -25 -10 -48 -25 -67c-23 2 -39 30 -65 47c-49 29 -104 51 -161 51c-7 0 -14 0 -21 -1c-28 -1 -53 -21 -59 -49c-6 -22 -9 -44 -9 -67c0 -51 15 -103 39 -147c14 -27 30 -50 41 -69c28 -44 67 -82 112 -108
c25 -12 54 -20 82 -20c20 0 41 4 59 15c34 25 44 70 60 107c19 21 17 45 18 70v33c0 36 -1 71 -1 106c0 56 3 110 19 163c8 29 28 50 44 73c4 6 6 11 6 16c0 19 -27 31 -46 31h-2h-3c-20 0 -36 -16 -47 -31zM170 731c55 -30 100 -75 144 -120c12 -10 22 -25 22 -40
c0 -8 -3 -17 -10 -24c-2 -4 -3 -8 -3 -12c0 -16 17 -28 17 -45c0 -2 0 -4 -1 -6c-2 -28 -27 -49 -53 -49c-4 0 -9 1 -13 2c-52 12 -89 57 -117 101c-29 51 -53 106 -57 165c0 2 -1 4 -1 7c0 18 12 42 30 42c4 0 8 -1 12 -4c11 -4 19 -13 30 -17z" />
</svg>
