<?xml version="1.0" standalone="no"?>
<!DOCTYPE svg PUBLIC "-//W3C//DTD SVG 1.1//EN" "http://www.w3.org/Graphics/SVG/1.1/DTD/svg11.dtd" >
<svg xmlns="http://www.w3.org/2000/svg" xmlns:xlink="http://www.w3.org/1999/xlink" version="1.1" viewBox="-10 0 494 1024">
   <path fill="currentColor"
d="M26 742c1 -32 30 -59 59 -59c10 0 20 3 29 10c22 15 54 24 85 24c94 -16 183 -103 183 -193v-10c-10 -23 -36 -33 -60 -33c-8 0 -16 1 -23 3c-39 12 -76 37 -106 60c-31 25 -50 73 -81 99c-9 9 -19 13 -28 13c-14 0 -26 -11 -26 -30v-6c14 -86 16 -164 23 -239
c20 -84 14 -363 72 -376c0 -3 1 -4 1 -4c4 0 12 91 12 136c0 12 0 21 -2 24c0 93 -14 181 -16 277c0 3 -1 6 -1 9c0 15 6 23 15 23c5 0 11 -3 17 -9c40 -19 78 -55 124 -55c3 0 7 1 10 1c48 1 105 21 126 67c9 24 13 49 13 74c0 71 -34 142 -89 190c-47 43 -111 66 -174 77
h-14c-59 0 -144 -22 -149 -73z" />
</svg>
